<svg width="25" height="25" viewBox="0 0 25 25" fill="none" xmlns="http://www.w3.org/2000/svg">
<mask id="mask0_5510_6366" style="mask-type:alpha" maskUnits="userSpaceOnUse" x="0" y="0" width="25" height="25">
<path fill-rule="evenodd" clip-rule="evenodd" d="M2.5 7.5C2.5 6.94772 2.94772 6.5 3.5 6.5H21.5C22.0523 6.5 22.5 6.94772 22.5 7.5C22.5 8.05228 22.0523 8.5 21.5 8.5H3.5C2.94772 8.5 2.5 8.05228 2.5 7.5Z" fill="black"/>
<path fill-rule="evenodd" clip-rule="evenodd" d="M17.7929 3.79289C18.1834 3.40237 18.8166 3.40237 19.2071 3.79289L22.2071 6.79289C22.5976 7.18342 22.5976 7.81658 22.2071 8.20711L19.2071 11.2071C18.8166 11.5976 18.1834 11.5976 17.7929 11.2071C17.4024 10.8166 17.4024 10.1834 17.7929 9.79289L20.0858 7.5L17.7929 5.20711C17.4024 4.81658 17.4024 4.18342 17.7929 3.79289Z" fill="black"/>
<path fill-rule="evenodd" clip-rule="evenodd" d="M7.20711 13.7929C7.59763 14.1834 7.59763 14.8166 7.20711 15.2071L4.91421 17.5L7.20711 19.7929C7.59763 20.1834 7.59763 20.8166 7.20711 21.2071C6.81658 21.5976 6.18342 21.5976 5.79289 21.2071L2.79289 18.2071C2.40237 17.8166 2.40237 17.1834 2.79289 16.7929L5.79289 13.7929C6.18342 13.4024 6.81658 13.4024 7.20711 13.7929Z" fill="black"/>
<path fill-rule="evenodd" clip-rule="evenodd" d="M2.5 17.5C2.5 16.9477 2.94772 16.5 3.5 16.5H21.5C22.0523 16.5 22.5 16.9477 22.5 17.5C22.5 18.0523 22.0523 18.5 21.5 18.5H3.5C2.94772 18.5 2.5 18.0523 2.5 17.5Z" fill="black"/>
</mask>
<g mask="url(#mask0_5510_6366)">
<rect x="0.5" y="0.5" width="24" height="24" fill="#FB9301"/>
</g>
</svg>
