<svg width="24" height="25" viewBox="0 0 24 25" fill="none" xmlns="http://www.w3.org/2000/svg">
<mask id="mask0_5510_12769" style="mask-type:alpha" maskUnits="userSpaceOnUse" x="0" y="0" width="24" height="25">
<path fill-rule="evenodd" clip-rule="evenodd" d="M12 7.5C12.5523 7.5 13 7.94772 13 8.5V12.0858L14.7071 13.7929C15.0976 14.1834 15.0976 14.8166 14.7071 15.2071C14.3166 15.5976 13.6834 15.5976 13.2929 15.2071L11.2929 13.2071C11.1054 13.0196 11 12.7652 11 12.5V8.5C11 7.94772 11.4477 7.5 12 7.5Z" fill="black"/>
<path fill-rule="evenodd" clip-rule="evenodd" d="M17.2636 6.38455C15.7826 5.09213 13.8777 4.39018 11.9122 4.41263C9.94669 4.43508 8.05825 5.18036 6.60716 6.50627C5.15608 7.83217 4.24393 9.6459 4.04473 11.6014C3.98877 12.1508 3.49799 12.5509 2.94854 12.4949C2.3991 12.439 1.99906 11.9482 2.05503 11.3987C2.30402 8.95435 3.44421 6.68719 5.25807 5.0298C7.07192 3.37242 9.43247 2.44082 11.8893 2.41276C14.3462 2.3847 16.7274 3.26213 18.5787 4.87766C20.4299 6.49318 21.6216 8.73371 21.9263 11.1718C22.2311 13.6098 21.6276 16.0747 20.231 18.0962C18.8344 20.1178 16.7424 21.5543 14.3542 22.1319C11.966 22.7095 9.44882 22.3876 7.2828 21.2277C6.0101 20.5462 4.91101 19.6033 4.04988 18.4734V20.5001C4.04988 21.0524 3.60217 21.5001 3.04988 21.5001C2.4976 21.5001 2.04988 21.0524 2.04988 20.5001V15.5001C2.04988 14.9478 2.4976 14.5001 3.04988 14.5001H3.52655C3.54208 14.4997 3.55758 14.4997 3.57304 14.5001H8.04988C8.60217 14.5001 9.04988 14.9478 9.04988 15.5001C9.04988 16.0524 8.60217 16.5001 8.04988 16.5001H5.12686C5.86637 17.744 6.93482 18.7726 8.22695 19.4646C9.95977 20.3925 11.9735 20.65 13.8841 20.1879C15.7946 19.7259 17.4682 18.5766 18.5855 16.9594C19.7028 15.3422 20.1856 13.3703 19.9418 11.4198C19.698 9.46939 18.7446 7.67697 17.2636 6.38455Z" fill="black"/>
</mask>
<g mask="url(#mask0_5510_12769)">
<rect y="0.5" width="24" height="24" fill="#00994F"/>
</g>
</svg>
