<svg width="32" height="32" viewBox="0 0 32 32" fill="none" xmlns="http://www.w3.org/2000/svg">
<g id="users-group">
<path id="Vector (Stroke)" fill-rule="evenodd" clip-rule="evenodd" d="M13.1716 14.5051C13.9217 13.7549 14.9391 13.3335 16 13.3335C17.0609 13.3335 18.0783 13.7549 18.8284 14.5051C19.5786 15.2552 20 16.2726 20 17.3335C20 18.3944 19.5786 19.4118 18.8284 20.1619C18.0783 20.9121 17.0609 21.3335 16 21.3335C14.9391 21.3335 13.9217 20.9121 13.1716 20.1619C12.4214 19.4118 12 18.3944 12 17.3335C12 16.2726 12.4214 15.2552 13.1716 14.5051ZM16 16.0002C15.6464 16.0002 15.3072 16.1406 15.0572 16.3907C14.8071 16.6407 14.6667 16.9799 14.6667 17.3335C14.6667 17.6871 14.8071 18.0263 15.0572 18.2763C15.3072 18.5264 15.6464 18.6668 16 18.6668C16.3536 18.6668 16.6928 18.5264 16.9428 18.2763C17.1929 18.0263 17.3333 17.6871 17.3333 17.3335C17.3333 16.9799 17.1929 16.6407 16.9428 16.3907C16.6928 16.1406 16.3536 16.0002 16 16.0002Z" fill="#00994F"/>
<path id="Vector (Stroke)_2" fill-rule="evenodd" clip-rule="evenodd" d="M13.333 25.3332C12.9794 25.3332 12.6402 25.4736 12.3902 25.7237C12.1401 25.9737 11.9997 26.3129 11.9997 26.6665V27.9998C11.9997 28.7362 11.4027 29.3332 10.6663 29.3332C9.92996 29.3332 9.33301 28.7362 9.33301 27.9998V26.6665C9.33301 25.6056 9.75444 24.5882 10.5046 23.8381C11.2547 23.0879 12.2721 22.6665 13.333 22.6665H18.6663C19.7272 22.6665 20.7446 23.0879 21.4948 23.8381C22.2449 24.5882 22.6663 25.6056 22.6663 26.6665V27.9998C22.6663 28.7362 22.0694 29.3332 21.333 29.3332C20.5966 29.3332 19.9997 28.7362 19.9997 27.9998V26.6665C19.9997 26.3129 19.8592 25.9737 19.6091 25.7237C19.3591 25.4736 19.02 25.3332 18.6663 25.3332H13.333Z" fill="#00994F"/>
<path id="Vector (Stroke)_3" fill-rule="evenodd" clip-rule="evenodd" d="M19.8386 3.83808C20.5887 3.08793 21.6061 2.6665 22.667 2.6665C23.7279 2.6665 24.7453 3.08793 25.4954 3.83808C26.2456 4.58822 26.667 5.60564 26.667 6.6665C26.667 7.72737 26.2456 8.74479 25.4954 9.49493C24.7453 10.2451 23.7279 10.6665 22.667 10.6665C21.6061 10.6665 20.5887 10.2451 19.8386 9.49493C19.0884 8.74479 18.667 7.72737 18.667 6.6665C18.667 5.60564 19.0884 4.58822 19.8386 3.83808ZM22.667 5.33317C22.3134 5.33317 21.9742 5.47365 21.7242 5.72369C21.4741 5.97374 21.3337 6.31288 21.3337 6.6665C21.3337 7.02013 21.4741 7.35926 21.7242 7.60931C21.9742 7.85936 22.3134 7.99984 22.667 7.99984C23.0206 7.99984 23.3598 7.85936 23.6098 7.60931C23.8598 7.35926 24.0003 7.02013 24.0003 6.6665C24.0003 6.31288 23.8598 5.97374 23.6098 5.72369C23.3598 5.47365 23.0206 5.33317 22.667 5.33317Z" fill="#00994F"/>
<path id="Vector (Stroke)_4" fill-rule="evenodd" clip-rule="evenodd" d="M21.333 13.3333C21.333 12.597 21.93 12 22.6663 12H25.333C26.3939 12 27.4113 12.4214 28.1614 13.1716C28.9116 13.9217 29.333 14.9391 29.333 16V17.3333C29.333 18.0697 28.7361 18.6667 27.9997 18.6667C27.2633 18.6667 26.6663 18.0697 26.6663 17.3333V16C26.6663 15.6464 26.5259 15.3072 26.2758 15.0572C26.0258 14.8071 25.6866 14.6667 25.333 14.6667H22.6663C21.93 14.6667 21.333 14.0697 21.333 13.3333Z" fill="#00994F"/>
<path id="Vector (Stroke)_5" fill-rule="evenodd" clip-rule="evenodd" d="M6.50458 3.83808C7.25473 3.08793 8.27214 2.6665 9.33301 2.6665C10.3939 2.6665 11.4113 3.08793 12.1614 3.83808C12.9116 4.58822 13.333 5.60564 13.333 6.6665C13.333 7.72737 12.9116 8.74479 12.1614 9.49493C11.4113 10.2451 10.3939 10.6665 9.33301 10.6665C8.27214 10.6665 7.25473 10.2451 6.50458 9.49493C5.75443 8.74479 5.33301 7.72737 5.33301 6.6665C5.33301 5.60564 5.75443 4.58822 6.50458 3.83808ZM9.33301 5.33317C8.97939 5.33317 8.64025 5.47365 8.3902 5.72369C8.14015 5.97374 7.99967 6.31288 7.99967 6.6665C7.99967 7.02013 8.14015 7.35926 8.3902 7.60931C8.64025 7.85936 8.97939 7.99984 9.33301 7.99984C9.68663 7.99984 10.0258 7.85936 10.2758 7.60931C10.5259 7.35926 10.6663 7.02013 10.6663 6.6665C10.6663 6.31288 10.5259 5.97374 10.2758 5.72369C10.0258 5.47365 9.68663 5.33317 9.33301 5.33317Z" fill="#00994F"/>
<path id="Vector (Stroke)_6" fill-rule="evenodd" clip-rule="evenodd" d="M6.66699 14.6667C6.31337 14.6667 5.97423 14.8071 5.72418 15.0572C5.47413 15.3072 5.33366 15.6464 5.33366 16V17.3333C5.33366 18.0697 4.73671 18.6667 4.00033 18.6667C3.26395 18.6667 2.66699 18.0697 2.66699 17.3333V16C2.66699 14.9391 3.08842 13.9217 3.83856 13.1716C4.58871 12.4214 5.60613 12 6.66699 12H9.33366C10.07 12 10.667 12.597 10.667 13.3333C10.667 14.0697 10.07 14.6667 9.33366 14.6667H6.66699Z" fill="#00994F"/>
</g>
</svg>
