<svg width="24" height="25" viewBox="0 0 24 25" fill="none" xmlns="http://www.w3.org/2000/svg">
<mask id="mask0_5510_5931" style="mask-type:alpha" maskUnits="userSpaceOnUse" x="0" y="0" width="24" height="25">
<path fill-rule="evenodd" clip-rule="evenodd" d="M11 8.5C11 7.94772 11.4477 7.5 12 7.5H20.5C21.163 7.5 21.7989 7.76339 22.2678 8.23223C22.7366 8.70107 23 9.33696 23 10C23 10.663 22.7366 11.2989 22.2678 11.7678C21.7989 12.2366 21.163 12.5 20.5 12.5H13C12.4477 12.5 12 12.0523 12 11.5C12 10.9477 12.4477 10.5 13 10.5H20.5C20.6326 10.5 20.7598 10.4473 20.8536 10.3536C20.9473 10.2598 21 10.1326 21 10C21 9.86739 20.9473 9.74022 20.8536 9.64645C20.7598 9.55268 20.6326 9.5 20.5 9.5H12C11.4477 9.5 11 9.05228 11 8.5Z" fill="black"/>
<path fill-rule="evenodd" clip-rule="evenodd" d="M12.5 11.5C12.5 10.9477 12.9477 10.5 13.5 10.5H15.5C16.163 10.5 16.7989 10.7634 17.2678 11.2322C17.7366 11.7011 18 12.337 18 13C18 13.663 17.7366 14.2989 17.2678 14.7678C16.7989 15.2366 16.163 15.5 15.5 15.5H13C12.4477 15.5 12 15.0523 12 14.5C12 13.9477 12.4477 13.5 13 13.5H15.5C15.6326 13.5 15.7598 13.4473 15.8536 13.3536C15.9473 13.2598 16 13.1326 16 13C16 12.8674 15.9473 12.7402 15.8536 12.6464C15.7598 12.5527 15.6326 12.5 15.5 12.5H13.5C12.9477 12.5 12.5 12.0523 12.5 11.5Z" fill="black"/>
<path fill-rule="evenodd" clip-rule="evenodd" d="M13.5 14.5C13.5 13.9477 13.9477 13.5 14.5 13.5C15.163 13.5 15.7989 13.7634 16.2678 14.2322C16.7366 14.7011 17 15.337 17 16C17 16.663 16.7366 17.2989 16.2678 17.7678C15.7989 18.2366 15.163 18.5 14.5 18.5H13C12.4477 18.5 12 18.0523 12 17.5C12 16.9477 12.4477 16.5 13 16.5H14.5C14.6326 16.5 14.7598 16.4473 14.8536 16.3536C14.9473 16.2598 15 16.1326 15 16C15 15.8674 14.9473 15.7402 14.8536 15.6464C14.7598 15.5527 14.6326 15.5 14.5 15.5C13.9477 15.5 13.5 15.0523 13.5 14.5Z" fill="black"/>
<path fill-rule="evenodd" clip-rule="evenodd" d="M12.5916 5.03793C12.4657 5.00456 12.3318 5.02162 12.2183 5.08546C8.85978 6.97457 6.99058 8.04802 6.54644 8.33742C6.54631 8.33751 6.54658 8.33734 6.54644 8.33742L6.25 8.53109C6.24951 8.53142 6.24901 8.53174 6.24852 8.53207C5.55763 8.98741 4.99053 9.6071 4.5981 10.3356C4.20564 11.0641 4.00014 11.8786 4 12.7061C4 12.7066 4 12.7072 4 12.7078V14.4999C4 15.826 4.52678 17.0978 5.46447 18.0355C6.40215 18.9731 7.67392 19.4999 9 19.4999H13.5C13.6326 19.4999 13.7598 19.4473 13.8536 19.3535C13.9473 19.2597 14 19.1325 14 18.9999C14 18.8673 13.9473 18.7401 13.8536 18.6464C13.7598 18.5526 13.6326 18.4999 13.5 18.4999C12.9477 18.4999 12.5 18.0522 12.5 17.4999C12.5 16.9476 12.9477 16.4999 13.5 16.4999C14.163 16.4999 14.7989 16.7633 15.2678 17.2322C15.7366 17.701 16 18.3369 16 18.9999C16 19.663 15.7366 20.2989 15.2678 20.7677C14.7989 21.2365 14.163 21.4999 13.5 21.4999H9C7.14349 21.4999 5.36301 20.7624 4.05025 19.4497C2.7375 18.1369 2 16.3564 2 14.4999L2 12.7081C2 12.708 2 12.7082 2 12.7081L2 12.4999C2 12.457 2.00271 12.4147 2.00796 12.3731C2.05777 11.3297 2.34057 10.3092 2.83733 9.38704C3.38714 8.36644 4.18181 7.49837 5.15 6.86076L5.15305 6.85876L5.45395 6.66218C5.96785 6.32721 7.91726 5.21004 11.2377 3.34239M11.2377 3.34239C11.8051 3.02318 12.4748 2.93787 13.1041 3.1047C13.7334 3.27153 14.2729 3.67731 14.6077 4.23573C15.2832 5.36259 15.1068 6.80578 14.1777 7.73645L12.7071 9.20704C12.3166 9.59756 11.6834 9.59756 11.2929 9.20704C10.9024 8.81651 10.9024 8.18335 11.2929 7.79282L12.7623 6.32341C12.7622 6.32348 12.7624 6.32333 12.7623 6.32341C13.043 6.04208 13.0967 5.60516 12.8923 5.26413M12.5916 5.03793C12.7175 5.07129 12.8254 5.15247 12.8923 5.26413L12.5916 5.03793Z" fill="black"/>
</mask>
<g mask="url(#mask0_5510_5931)">
<rect y="0.5" width="24" height="24" fill="#00994F"/>
</g>
</svg>
