<svg width="24" height="25" viewBox="0 0 24 25" fill="none" xmlns="http://www.w3.org/2000/svg">
<mask id="mask0_5510_11789" style="mask-type:alpha" maskUnits="userSpaceOnUse" x="0" y="0" width="24" height="25">
<path fill-rule="evenodd" clip-rule="evenodd" d="M3.87868 17.3787C4.44129 16.8161 5.20435 16.5 6 16.5C6.79565 16.5 7.55871 16.8161 8.12132 17.3787C8.68393 17.9413 9 18.7044 9 19.5C9 20.2956 8.68393 21.0587 8.12132 21.6213C7.55871 22.1839 6.79565 22.5 6 22.5C5.20435 22.5 4.44129 22.1839 3.87868 21.6213C3.31607 21.0587 3 20.2956 3 19.5C3 18.7044 3.31607 17.9413 3.87868 17.3787ZM6 18.5C5.73478 18.5 5.48043 18.6054 5.29289 18.7929C5.10536 18.9804 5 19.2348 5 19.5C5 19.7652 5.10536 20.0196 5.29289 20.2071C5.48043 20.3946 5.73478 20.5 6 20.5C6.26522 20.5 6.51957 20.3946 6.70711 20.2071C6.89464 20.0196 7 19.7652 7 19.5C7 19.2348 6.89464 18.9804 6.70711 18.7929C6.51957 18.6054 6.26522 18.5 6 18.5Z" fill="black"/>
<path fill-rule="evenodd" clip-rule="evenodd" d="M14.8787 17.3787C15.4413 16.8161 16.2043 16.5 17 16.5C17.7957 16.5 18.5587 16.8161 19.1213 17.3787C19.6839 17.9413 20 18.7043 20 19.5C20 20.2957 19.6839 21.0587 19.1213 21.6213C18.5587 22.1839 17.7957 22.5 17 22.5C16.2043 22.5 15.4413 22.1839 14.8787 21.6213C14.3161 21.0587 14 20.2957 14 19.5C14 18.7043 14.3161 17.9413 14.8787 17.3787ZM17 18.5C16.7348 18.5 16.4804 18.6054 16.2929 18.7929C16.1054 18.9804 16 19.2348 16 19.5C16 19.7652 16.1054 20.0196 16.2929 20.2071C16.4804 20.3946 16.7348 20.5 17 20.5C17.2652 20.5 17.5196 20.3946 17.7071 20.2071C17.8946 20.0196 18 19.7652 18 19.5C18 19.2348 17.8946 18.9804 17.7071 18.7929C17.5196 18.6054 17.2652 18.5 17 18.5Z" fill="black"/>
<path fill-rule="evenodd" clip-rule="evenodd" d="M3 3.5C3 2.94772 3.44772 2.5 4 2.5H6C6.55228 2.5 7 2.94772 7 3.5V16.5H17C17.5523 16.5 18 16.9477 18 17.5C18 18.0523 17.5523 18.5 17 18.5H6C5.44772 18.5 5 18.0523 5 17.5V4.5H4C3.44772 4.5 3 4.05228 3 3.5Z" fill="black"/>
<path fill-rule="evenodd" clip-rule="evenodd" d="M5.00258 5.4288C5.04193 4.87791 5.52041 4.46324 6.07129 4.50258L20.0713 5.50258C20.3481 5.52235 20.6042 5.65622 20.7784 5.87219C20.9526 6.08815 21.0292 6.36678 20.99 6.64146L19.99 13.6415C19.9196 14.1341 19.4977 14.5 19 14.5H6.00004C5.44776 14.5 5.00004 14.0523 5.00004 13.5C5.00004 12.9478 5.44776 12.5 6.00004 12.5H18.1327L18.8583 7.42104L5.9288 6.4975C5.37791 6.45815 4.96324 5.97968 5.00258 5.4288Z" fill="black"/>
</mask>
<g mask="url(#mask0_5510_11789)">
<rect y="0.5" width="24" height="24" fill="#00994F"/>
</g>
</svg>
