<svg width="32" height="33" viewBox="0 0 32 33" fill="none" xmlns="http://www.w3.org/2000/svg">
<g id="device-mobile-down">
<path id="Vector (Stroke)" fill-rule="evenodd" clip-rule="evenodd" d="M10.667 6.09684C10.3134 6.09684 9.97423 6.23732 9.72418 6.48737C9.47413 6.73742 9.33366 7.07655 9.33366 7.43018V26.0968C9.33366 26.4505 9.47413 26.7896 9.72418 27.0396C9.97423 27.2897 10.3134 27.4302 10.667 27.4302H16.667C17.4034 27.4302 18.0003 28.0271 18.0003 28.7635C18.0003 29.4999 17.4034 30.0968 16.667 30.0968H10.667C9.60613 30.0968 8.58871 29.6754 7.83856 28.9253C7.08842 28.1751 6.66699 27.1577 6.66699 26.0968V7.43018C6.66699 6.36931 7.08842 5.35189 7.83856 4.60175C8.58871 3.8516 9.60613 3.43018 10.667 3.43018H21.3337C22.3945 3.43018 23.4119 3.8516 24.1621 4.60175C24.9122 5.35189 25.3337 6.36931 25.3337 7.43018V16.7635C25.3337 17.4999 24.7367 18.0968 24.0003 18.0968C23.2639 18.0968 22.667 17.4999 22.667 16.7635V7.43018C22.667 7.07655 22.5265 6.73742 22.2765 6.48737C22.0264 6.23732 21.6873 6.09684 21.3337 6.09684H10.667Z" fill="#00994F"/>
<path id="Vector (Stroke)_2" fill-rule="evenodd" clip-rule="evenodd" d="M13.333 6.09701C13.333 5.36063 13.93 4.76367 14.6663 4.76367H17.333C18.0694 4.76367 18.6663 5.36063 18.6663 6.09701C18.6663 6.83338 18.0694 7.43034 17.333 7.43034H14.6663C13.93 7.43034 13.333 6.83338 13.333 6.09701Z" fill="#00994F"/>
<path id="Vector (Stroke)_3" fill-rule="evenodd" clip-rule="evenodd" d="M16.0003 22.0972C16.7367 22.0972 17.3337 22.6941 17.3337 23.4305V23.4438C17.3337 24.1802 16.7367 24.7772 16.0003 24.7772C15.2639 24.7772 14.667 24.1802 14.667 23.4438V23.4305C14.667 22.6941 15.2639 22.0972 16.0003 22.0972Z" fill="#00994F"/>
<path id="Vector (Stroke)_4" fill-rule="evenodd" clip-rule="evenodd" d="M25.3333 20.7637C26.0697 20.7637 26.6667 21.3606 26.6667 22.097V30.097C26.6667 30.8334 26.0697 31.4303 25.3333 31.4303C24.597 31.4303 24 30.8334 24 30.097V22.097C24 21.3606 24.597 20.7637 25.3333 20.7637Z" fill="#00994F"/>
<path id="Vector (Stroke)_5" fill-rule="evenodd" clip-rule="evenodd" d="M20.3905 25.1542C20.9112 24.6335 21.7554 24.6335 22.2761 25.1542L25.3333 28.2114L28.3905 25.1542C28.9112 24.6335 29.7554 24.6335 30.2761 25.1542C30.7968 25.6749 30.7968 26.5191 30.2761 27.0398L26.2761 31.0398C25.7554 31.5605 24.9112 31.5605 24.3905 31.0398L20.3905 27.0398C19.8698 26.5191 19.8698 25.6749 20.3905 25.1542Z" fill="#00994F"/>
</g>
</svg>
