<svg width="24" height="25" viewBox="0 0 24 25" fill="none" xmlns="http://www.w3.org/2000/svg">
<mask id="mask0_5510_5952" style="mask-type:alpha" maskUnits="userSpaceOnUse" x="0" y="0" width="24" height="25">
<path fill-rule="evenodd" clip-rule="evenodd" d="M8.46447 3.96447C9.40215 3.02678 10.6739 2.5 12 2.5C13.3261 2.5 14.5979 3.02678 15.5355 3.96447C16.4732 4.90215 17 6.17392 17 7.5C17 8.82608 16.4732 10.0979 15.5355 11.0355C14.5979 11.9732 13.3261 12.5 12 12.5C10.6739 12.5 9.40215 11.9732 8.46447 11.0355C7.52678 10.0979 7 8.82608 7 7.5C7 6.17392 7.52678 4.90215 8.46447 3.96447ZM12 4.5C11.2044 4.5 10.4413 4.81607 9.87868 5.37868C9.31607 5.94129 9 6.70435 9 7.5C9 8.29565 9.31607 9.05871 9.87868 9.62132C10.4413 10.1839 11.2044 10.5 12 10.5C12.7956 10.5 13.5587 10.1839 14.1213 9.62132C14.6839 9.05871 15 8.29565 15 7.5C15 6.70435 14.6839 5.94129 14.1213 5.37868C13.5587 4.81607 12.7956 4.5 12 4.5Z" fill="black"/>
<path fill-rule="evenodd" clip-rule="evenodd" d="M10 16.5C9.20435 16.5 8.44129 16.8161 7.87868 17.3787C7.31607 17.9413 7 18.7044 7 19.5V21.5C7 22.0523 6.55228 22.5 6 22.5C5.44772 22.5 5 22.0523 5 21.5V19.5C5 18.1739 5.52678 16.9021 6.46447 15.9645C7.40215 15.0268 8.67392 14.5 10 14.5H14C14.5523 14.5 15 14.9477 15 15.5C15 16.0523 14.5523 16.5 14 16.5H10Z" fill="black"/>
<path fill-rule="evenodd" clip-rule="evenodd" d="M21.7071 16.7929C22.0976 17.1834 22.0976 17.8166 21.7071 18.2071L17.7071 22.2071C17.3166 22.5976 16.6834 22.5976 16.2929 22.2071L14.2929 20.2071C13.9024 19.8166 13.9024 19.1834 14.2929 18.7929C14.6834 18.4024 15.3166 18.4024 15.7071 18.7929L17 20.0858L20.2929 16.7929C20.6834 16.4024 21.3166 16.4024 21.7071 16.7929Z" fill="black"/>
</mask>
<g mask="url(#mask0_5510_5952)">
<rect y="0.5" width="24" height="24" fill="#00994F"/>
</g>
</svg>
