<svg width="32" height="32" viewBox="0 0 32 32" fill="none" xmlns="http://www.w3.org/2000/svg">
<mask id="mask0_871_1016" style="mask-type:alpha" maskUnits="userSpaceOnUse" x="0" y="0" width="32" height="32">
<path fill-rule="evenodd" clip-rule="evenodd" d="M8 18.6667C7.64638 18.6667 7.30724 18.8071 7.05719 19.0572C6.80714 19.3072 6.66667 19.6464 6.66667 20V24C6.66667 24.3536 6.80714 24.6928 7.05719 24.9428C7.30724 25.1929 7.64638 25.3333 8 25.3333H9.33333C9.68695 25.3333 10.0261 25.1929 10.2761 24.9428C10.5262 24.6928 10.6667 24.3536 10.6667 24V20C10.6667 19.6464 10.5262 19.3072 10.2761 19.0572C10.0261 18.8071 9.68695 18.6667 9.33333 18.6667H8ZM5.17157 17.1716C5.92172 16.4214 6.93913 16 8 16H9.33333C10.3942 16 11.4116 16.4214 12.1618 17.1716C12.9119 17.9217 13.3333 18.9391 13.3333 20V24C13.3333 25.0609 12.9119 26.0783 12.1618 26.8284C11.4116 27.5786 10.3942 28 9.33333 28H8C6.93913 28 5.92172 27.5786 5.17157 26.8284C4.42143 26.0783 4 25.0609 4 24V20C4 18.9391 4.42143 17.9217 5.17157 17.1716Z" fill="black"/>
<path fill-rule="evenodd" clip-rule="evenodd" d="M22.6665 18.6667C22.3129 18.6667 21.9737 18.8071 21.7237 19.0572C21.4736 19.3072 21.3332 19.6464 21.3332 20V24C21.3332 24.3536 21.4736 24.6928 21.7237 24.9428C21.9737 25.1929 22.3129 25.3333 22.6665 25.3333H23.9998C24.3535 25.3333 24.6926 25.1929 24.9426 24.9428C25.1927 24.6928 25.3332 24.3536 25.3332 24V20C25.3332 19.6464 25.1927 19.3072 24.9426 19.0572C24.6926 18.8071 24.3535 18.6667 23.9998 18.6667H22.6665ZM19.8381 17.1716C20.5882 16.4214 21.6056 16 22.6665 16H23.9998C25.0607 16 26.0781 16.4214 26.8283 17.1716C27.5784 17.9217 27.9998 18.9391 27.9998 20V24C27.9998 25.0609 27.5784 26.0783 26.8283 26.8284C26.0781 27.5786 25.0607 28 23.9998 28H22.6665C21.6056 28 20.5882 27.5786 19.8381 26.8284C19.0879 26.0783 18.6665 25.0609 18.6665 24V20C18.6665 18.9391 19.0879 17.9217 19.8381 17.1716Z" fill="black"/>
<path fill-rule="evenodd" clip-rule="evenodd" d="M16 6.66667C13.5246 6.66667 11.1507 7.65 9.40034 9.40034C7.65 11.1507 6.66667 13.5246 6.66667 16V20C6.66667 20.7364 6.06971 21.3333 5.33333 21.3333C4.59695 21.3333 4 20.7364 4 20V16C4 12.8174 5.26428 9.76516 7.51472 7.51472C9.76516 5.26428 12.8174 4 16 4C19.1826 4 22.2348 5.26428 24.4853 7.51472C26.7357 9.76516 28 12.8174 28 16V20C28 20.7364 27.403 21.3333 26.6667 21.3333C25.9303 21.3333 25.3333 20.7364 25.3333 20V16C25.3333 13.5246 24.35 11.1507 22.5997 9.40034C20.8493 7.65 18.4754 6.66667 16 6.66667Z" fill="black"/>
</mask>
<g mask="url(#mask0_871_1016)">
<rect width="32" height="32" fill="#00994F"/>
</g>
</svg>
