<?xml version="1.0" encoding="UTF-8"?>
<svg id="Layer_1" xmlns="http://www.w3.org/2000/svg" version="1.1" viewBox="0 0 32 32">
  <!-- Generator: Adobe Illustrator 29.0.0, SVG Export Plug-In . SVG Version: 2.1.0 Build 186)  -->
  <defs>
    <style>
      .st0 {
        fill: #fff;
      }

      .st1 {
        fill: #eb1c24;
      }

      .st2 {
        fill: #00984f;
      }
    </style>
  </defs>
  <rect class="st0" x="-1.03" y="-1.03" width="34.07" height="34.07"/>
  <path class="st2" d="M4.39,21.32c0-.23.03-.41.09-.56.06-.15.15-.26.27-.35.12-.08.26-.14.43-.17.17-.03.36-.05.57-.05h1.53c.21,0,.41.02.57.05.17.03.31.09.43.17.12.08.21.2.27.35.06.15.09.33.09.56v.93c0,.23-.03.42-.09.56-.06.14-.15.26-.27.34-.12.08-.26.14-.43.17-.17.03-.36.05-.57.05h-1.53c-.21,0-.41-.02-.57-.05-.17-.03-.31-.09-.43-.17-.12-.08-.21-.2-.27-.34-.06-.14-.09-.33-.09-.56v-.93ZM5.36,21.95c0,.11,0,.21.02.29.01.08.04.14.08.19.04.05.1.08.17.11.07.02.16.03.27.03h1.22c.11,0,.2-.01.27-.03.07-.02.13-.06.17-.11.04-.05.07-.11.08-.19.01-.08.02-.18.02-.29v-.33c0-.1,0-.18-.02-.26-.02-.08-.05-.14-.09-.2-.04-.05-.1-.1-.18-.12-.08-.03-.18-.04-.3-.04h-1.12c-.13,0-.23.01-.3.04-.08.03-.14.07-.18.12-.04.05-.07.12-.09.2-.02.08-.02.16-.02.26v.33Z"/>
  <path class="st2" d="M9.23,20.23h1.48l1.79,2.26h0v-2.26h.95v3.11h-1.48l-1.79-2.26h0v2.26h-.95v-3.11Z"/>
  <g>
    <path class="st1" d="M15.1,8.65v2.38h-7.65v1.92h7.28v2.33h-7.28v3.49h-3.09v-10.12h10.74Z"/>
    <polygon class="st1" points="27.64 8.65 27.64 11.03 19.37 11.03 19.37 12.49 27.17 12.49 27.17 14.72 19.37 14.72 19.37 16.34 27.64 16.34 27.64 18.77 16.31 18.77 16.31 8.65 27.64 8.65"/>
    <path class="st2" d="M14.07,20.25h.95v2.31h2.14v.8h-3.09v-3.11Z"/>
  </g>
  <path class="st2" d="M17.64,20.23h.95v3.11h-.95v-3.11Z"/>
  <path class="st2" d="M19.29,20.23h1.48l1.79,2.26h0v-2.26h.95v3.11h-1.48l-1.79-2.26h0v2.26h-.95v-3.11Z"/>
  <path class="st2" d="M24.16,20.23h3.4v.72h-2.45v.5h2.32v.64h-2.32v.5h2.5v.75h-3.45v-3.11Z"/>
</svg>