<svg width="25" height="25" viewBox="0 0 25 25" fill="none" xmlns="http://www.w3.org/2000/svg">
<mask id="mask0_5510_6377" style="mask-type:alpha" maskUnits="userSpaceOnUse" x="0" y="0" width="25" height="25">
<path fill-rule="evenodd" clip-rule="evenodd" d="M13.2071 7.79289C13.5976 8.18342 13.5976 8.81658 13.2071 9.20711L9.91421 12.5L13.2071 15.7929C13.5976 16.1834 13.5976 16.8166 13.2071 17.2071C12.8166 17.5976 12.1834 17.5976 11.7929 17.2071L7.79289 13.2071C7.40237 12.8166 7.40237 12.1834 7.79289 11.7929L11.7929 7.79289C12.1834 7.40237 12.8166 7.40237 13.2071 7.79289Z" fill="black"/>
<path fill-rule="evenodd" clip-rule="evenodd" d="M7.5 12.5C7.5 11.9477 7.94772 11.5 8.5 11.5H16.5C17.0523 11.5 17.5 11.9477 17.5 12.5C17.5 13.0523 17.0523 13.5 16.5 13.5H8.5C7.94772 13.5 7.5 13.0523 7.5 12.5Z" fill="black"/>
<path fill-rule="evenodd" clip-rule="evenodd" d="M6.00711 6.00711C4.97511 7.0391 4.5 8.89285 4.5 12.5C4.5 16.1071 4.97511 17.9609 6.00711 18.9929C7.0391 20.0249 8.89285 20.5 12.5 20.5C16.1071 20.5 17.9609 20.0249 18.9929 18.9929C20.0249 17.9609 20.5 16.1071 20.5 12.5C20.5 8.89285 20.0249 7.0391 18.9929 6.00711C17.9609 4.97511 16.1071 4.5 12.5 4.5C8.89285 4.5 7.0391 4.97511 6.00711 6.00711ZM4.59289 4.59289C6.2609 2.92489 8.90715 2.5 12.5 2.5C16.0929 2.5 18.7391 2.92489 20.4071 4.59289C22.0751 6.2609 22.5 8.90715 22.5 12.5C22.5 16.0929 22.0751 18.7391 20.4071 20.4071C18.7391 22.0751 16.0929 22.5 12.5 22.5C8.90715 22.5 6.2609 22.0751 4.59289 20.4071C2.92489 18.7391 2.5 16.0929 2.5 12.5C2.5 8.90715 2.92489 6.2609 4.59289 4.59289Z" fill="black"/>
</mask>
<g mask="url(#mask0_5510_6377)">
<rect x="0.5" y="0.5" width="24" height="24" fill="#FB9301"/>
</g>
</svg>
