<svg width="24" height="25" viewBox="0 0 24 25" fill="none" xmlns="http://www.w3.org/2000/svg">
<mask id="mask0_5510_5942" style="mask-type:alpha" maskUnits="userSpaceOnUse" x="0" y="0" width="24" height="25">
<path fill-rule="evenodd" clip-rule="evenodd" d="M15.5858 16.0858C15.9609 15.7107 16.4696 15.5 17 15.5C17.5304 15.5 18.0391 15.7107 18.4142 16.0858C18.7893 16.4609 19 16.9696 19 17.5C19 18.0304 18.7893 18.5391 18.4142 18.9142C18.0391 19.2893 17.5304 19.5 17 19.5C16.4696 19.5 15.9609 19.2893 15.5858 18.9142C15.2107 18.5391 15 18.0304 15 17.5C15 16.9696 15.2107 16.4609 15.5858 16.0858Z" fill="black"/>
<path fill-rule="evenodd" clip-rule="evenodd" d="M5.58579 6.08579C5.96086 5.71071 6.46957 5.5 7 5.5C7.53043 5.5 8.03914 5.71071 8.41421 6.08579C8.78929 6.46086 9 6.96957 9 7.5C9 8.03043 8.78929 8.53914 8.41421 8.91421C8.03914 9.28929 7.53043 9.5 7 9.5C6.46957 9.5 5.96086 9.28929 5.58579 8.91421C5.21071 8.53914 5 8.03043 5 7.5C5 6.96957 5.21071 6.46086 5.58579 6.08579Z" fill="black"/>
<path fill-rule="evenodd" clip-rule="evenodd" d="M18.7071 5.79289C19.0976 6.18342 19.0976 6.81658 18.7071 7.20711L6.70711 19.2071C6.31658 19.5976 5.68342 19.5976 5.29289 19.2071C4.90237 18.8166 4.90237 18.1834 5.29289 17.7929L17.2929 5.79289C17.6834 5.40237 18.3166 5.40237 18.7071 5.79289Z" fill="black"/>
</mask>
<g mask="url(#mask0_5510_5942)">
<rect y="0.5" width="24" height="24" fill="#00994F"/>
</g>
</svg>
