<svg width="1440" height="896" viewBox="0 0 1440 896" fill="none" xmlns="http://www.w3.org/2000/svg">
<g clip-path="url(#clip0_8246_12602)">
<g opacity="0.3">
<path d="M-204.93 -202.897C-178.02 -209.035 -151.645 -209.375 -126.251 -203.879C-90.1637 -196.06 -55.8155 -177.013 -21.3189 -145.603C9.50937 -117.565 39.7858 -80.2334 71.3388 -31.4492C130.022 59.2983 182.405 172.982 237.865 293.303C367.927 575.448 502.4 867.221 722.643 843.738C755.34 840.261 787.847 824.527 822.048 795.652C852.533 769.908 883.682 734.226 917.28 686.567C979.661 597.991 1041.2 480.28 1100.72 366.454C1160.46 252.154 1222.27 133.955 1285.06 44.894C1318.89 -3.04558 1350.28 -38.9467 1381.06 -64.8543C1415.63 -93.9453 1448.57 -109.778 1481.7 -113.223C1544.93 -119.815 1617.83 -102.417 1704.61 -60.0306C1781.93 -22.2409 1862.88 31.4256 1941.17 83.3158C2020.74 136.058 2103 190.632 2181.4 228.437C2223.6 248.791 2261.37 262.818 2296.86 271.327C2336.67 280.876 2372.62 283.246 2406.72 278.632C2451.15 272.609 2496.49 253.589 2545.35 220.425C2588.97 190.837 2631.34 152.922 2672.31 116.305C2722.5 71.418 2774.43 24.9938 2829.29 -6.86419C2895.6 -45.3474 2968.09 -54.4754 3038.96 -33.286C3091.44 -17.5604 3142.37 14.4732 3190.28 62.0049C3242.87 114.148 3291.72 184.922 3335.57 272.364L3334.87 272.72C3291.07 185.364 3242.26 114.645 3189.76 62.5803C3141.94 15.1585 3091.15 -16.8413 3038.77 -32.5262C2968.14 -53.672 2895.85 -44.5553 2829.74 -6.18358C2774.93 25.6292 2723.06 72.0083 2672.87 116.895C2631.87 153.551 2589.47 191.473 2545.83 221.098C2496.86 254.322 2451.4 273.432 2406.84 279.453C2372.62 284.094 2336.59 281.677 2296.69 272.118C2261.16 263.616 2223.33 249.572 2181.08 229.194C2102.6 191.341 2020.31 136.775 1940.75 84.0322C1862.49 32.1349 1781.57 -21.5388 1704.29 -59.2735C1617.66 -101.595 1544.89 -118.959 1481.82 -112.402C1448.82 -108.954 1416.06 -93.1956 1381.6 -64.1948C1350.88 -38.3323 1319.5 -2.50028 1285.73 45.3941C1222.96 134.386 1161.17 252.578 1101.43 366.847C1041.91 480.704 980.377 598.415 917.941 687.036C884.326 734.764 853.122 770.491 822.582 796.28C788.272 825.246 755.616 841.046 722.758 844.527C501.944 868.076 367.345 576.037 237.157 293.628C181.697 173.306 129.329 59.6849 70.6832 -31.0388C39.1753 -79.768 8.9059 -117.068 -21.8392 -145.027C-56.2456 -176.327 -90.4558 -195.34 -126.405 -203.126C-159.164 -210.204 -193.539 -207.518 -228.675 -195.165C-265.89 -182.077 -305.333 -157.618 -345.919 -122.458L-346.447 -123.055C-305.782 -158.298 -266.253 -182.81 -228.944 -195.919C-220.896 -198.767 -212.888 -201.082 -204.93 -202.897Z" fill="url(#paint0_radial_8246_12602)"/>
<path d="M-195.533 -167.263C-171.07 -172.843 -147.069 -173.456 -123.85 -169.063C-91.3034 -162.916 -60.1804 -147.439 -28.7422 -121.726C-0.357695 -98.5458 27.5903 -67.5671 56.7073 -27.0355C112.409 50.4948 164.129 152.422 212.36 250.186C219.271 264.203 226.203 278.314 233.142 292.455C328.238 486.142 426.559 686.4 554.726 779.699C609.896 820.193 666.327 837.074 727.241 831.337C776.351 826.692 826.08 795.482 879.302 735.877C922.689 687.29 968.314 620.087 1022.88 524.388C1053.94 469.902 1085.18 411.037 1115.39 354.071C1165.1 260.36 1216.52 163.453 1268.26 84.0885C1326.28 -4.92656 1378.64 -62.1506 1428.4 -90.8216C1448.43 -102.273 1468.52 -109.303 1488.16 -111.76C1522.57 -116.15 1558.8 -113.682 1598.89 -104.197C1634.6 -95.7371 1672.59 -81.8597 1715.02 -61.7861C1793.83 -24.4976 1876.39 29.0949 1956.24 80.9562C2029.39 128.441 2105 177.551 2177.47 213.904C2269.34 259.761 2342.51 277.913 2407.74 270.962C2451.35 266.333 2495.92 249.349 2544.04 219.093C2586.97 192.076 2628.73 157.203 2669.08 123.435C2718.99 81.7442 2770.59 38.5921 2825.02 9.83424C2889.99 -24.3643 2960.74 -30.713 3029.59 -8.50907C3081.45 8.20647 3131.72 40.7816 3178.99 88.3306C3230.91 140.56 3279.2 210.875 3322.48 297.371L3321.78 297.727C3278.51 211.293 3230.3 141.026 3178.43 88.8819C3131.25 41.4119 3081.09 8.90863 3029.34 -7.76608C2960.7 -29.8884 2890.15 -23.5509 2825.37 10.5362C2771.01 39.2799 2719.46 82.3869 2669.58 124.04C2629.19 157.784 2587.4 192.695 2544.45 219.75C2496.25 250.089 2451.55 267.101 2407.82 271.727C2342.42 278.683 2269.12 260.528 2177.1 214.575C2104.59 178.198 2028.95 129.095 1955.79 81.5796C1875.98 29.7422 1793.42 -23.8504 1714.65 -61.1149C1672.26 -81.1646 1634.34 -95.0251 1598.66 -103.461C1558.65 -112.929 1522.51 -115.387 1488.19 -111.018C1468.65 -108.583 1448.65 -101.574 1428.74 -90.1818C1379.1 -61.57 1326.81 -4.42916 1268.87 84.4717C1217.16 163.829 1165.76 260.698 1116.04 354.378C1085.83 411.313 1054.57 470.216 1023.51 524.702C968.884 620.447 923.236 687.688 879.832 736.344C826.484 796.108 776.614 827.415 727.273 832.047C666.173 837.827 609.566 820.888 554.237 780.268C425.918 686.873 327.537 486.498 232.427 292.749C225.488 278.607 218.556 264.497 211.645 250.479C163.422 152.746 111.708 50.8504 56.0516 -26.625C26.9868 -67.0706 -0.916042 -97.9944 -29.2625 -121.151C-60.6104 -146.754 -91.6265 -162.19 -124.035 -168.304C-156.512 -174.434 -190.592 -170.739 -225.256 -157.32C-262.01 -143.064 -300.932 -117.321 -340.945 -80.7911L-341.473 -81.3885C-301.412 -117.994 -262.403 -143.79 -225.557 -158.067C-215.53 -161.952 -205.518 -165.051 -195.609 -167.311L-195.533 -167.263Z" fill="url(#paint1_radial_8246_12602)"/>
<path d="M-186.255 -132.157C-164.144 -137.2 -142.461 -137.97 -121.117 -134.519C-89.7589 -129.438 -59.6441 -115.526 -29.0417 -91.9056C-1.41247 -70.6084 25.9502 -41.9102 54.5925 -4.17381C109.124 67.6535 160.988 163.643 209.441 255.81C215.375 267.115 221.361 278.505 227.354 289.926C276.097 382.941 326.54 479.124 381.105 563.667C442.804 659.207 501.315 725.918 559.989 767.635C615.436 807.055 671.638 823.793 731.851 818.835C781.667 814.715 831.969 784.875 885.59 727.592C930.089 680.024 976.145 614.713 1030.49 522.033C1064.08 464.653 1097.74 402.105 1130.27 341.608C1178.78 251.367 1228.91 158.081 1279.37 81.4907C1335.88 -4.37729 1387.01 -60.0458 1435.68 -88.7318C1455.09 -100.174 1474.96 -107.478 1494.72 -110.387C1529.77 -115.574 1566.68 -113.717 1607.59 -104.747C1644.01 -96.7426 1682.78 -83.1729 1726.13 -63.3422C1806.61 -26.4661 1890.95 27.1101 1972.55 78.9311C2041.51 122.74 2112.87 168.057 2181.39 202.961C2272.5 248.926 2344.82 268.055 2408.92 263.156C2504.05 255.878 2586.06 192.219 2665.36 130.678C2715.12 92.055 2766.6 52.0945 2820.83 26.4493C2857.4 9.13521 2895.77 0.515228 2934.81 0.843596C2976.85 1.20441 3018.88 11.9728 3059.81 32.8479C3104.2 55.5088 3147.14 90.0824 3187.46 135.626C3231.25 185.046 3272.29 247.847 3309.5 322.288L3308.8 322.643C3271.6 248.265 3230.58 185.525 3186.87 136.153C3146.59 90.6957 3103.73 56.1702 3059.41 33.5573C3018.6 12.723 2976.66 1.96434 2934.76 1.6373C2895.82 1.31876 2857.61 9.90335 2821.12 27.1652C2766.96 52.7962 2715.53 92.7117 2665.8 131.328C2586.39 192.959 2504.27 256.677 2408.91 263.974C2344.66 268.908 2272.23 249.738 2180.97 203.709C2112.41 168.781 2041.06 123.463 1972.06 79.6306C1890.49 27.8025 1806.18 -25.7808 1725.75 -62.6019C1682.46 -82.4157 1643.73 -95.9615 1607.38 -103.949C1566.56 -112.94 1529.75 -114.788 1494.81 -109.591C1475.12 -106.665 1455.36 -99.4195 1436.04 -88.03C1387.48 -59.4032 1336.43 -3.81782 1279.99 81.9359C1229.6 158.513 1179.43 251.774 1130.94 342.008C1098.42 402.505 1064.77 465.084 1031.17 522.464C976.806 615.182 930.733 680.562 886.172 728.144C832.425 785.586 781.981 815.523 731.935 819.631C671.529 824.6 615.151 807.805 559.552 768.29C500.802 726.525 442.245 659.758 380.456 564.108C325.861 479.572 275.441 383.351 226.66 290.313C220.667 278.891 214.712 267.494 208.747 256.197C160.302 164.06 108.444 68.1021 53.958 -3.67025C25.3608 -41.3517 -1.95666 -69.9949 -29.5098 -91.2442C-60.022 -114.755 -89.9988 -128.633 -121.219 -133.68C-188.298 -144.544 -258.473 -113.564 -335.786 -39.036L-336.337 -39.5954C-283.438 -90.6128 -233.836 -121.239 -186.24 -132.095L-186.255 -132.157Z" fill="url(#paint2_radial_8246_12602)"/>
<path d="M-177.071 -97.3224C-157.19 -101.857 -137.63 -102.795 -118.279 -100.227C-88.109 -96.2127 -58.9814 -83.7718 -29.2147 -62.2445C-2.33364 -42.7992 24.4198 -16.3436 52.5945 18.6286C106.05 85.025 155.915 171.39 206.498 261.473C211.985 271.248 217.48 281.054 223.026 290.946C273.248 380.589 325.211 473.294 381.547 555.606C445.434 648.885 505.506 714.294 565.222 755.579C620.721 793.942 676.725 810.529 736.422 806.309C786.989 802.768 837.826 774.274 891.84 719.283C936.835 673.461 984.655 608.172 1038.03 519.661C1074.06 459.832 1109.9 394.013 1144.61 330.345C1191.97 243.366 1240.95 153.443 1290.19 79.3808C1345.35 -3.59948 1395.28 -57.9198 1442.85 -86.7138C1461.83 -98.2188 1481.48 -105.736 1501.17 -109.117C1536.76 -115.211 1574.26 -114.043 1615.86 -105.622C1652.89 -98.1143 1692.34 -84.9623 1736.44 -65.4321C1818.34 -29.1432 1904.3 24.359 1987.45 76.0891C2052.67 116.671 2120.1 158.642 2185.15 192.023C2275 238.146 2346.43 258.26 2409.94 255.323C2503.01 251.026 2583.65 193.387 2661.67 137.652C2711.28 102.196 2762.57 65.5417 2816.52 42.9923C2892.46 11.2851 2973.69 16.7686 3051.49 58.7885C3095.04 82.3266 3137.18 117.246 3176.72 162.642C3219.62 211.904 3259.9 273.965 3296.47 347.149L3295.77 347.505C3259.25 274.406 3219.01 212.369 3176.15 163.162C3136.66 117.852 3094.63 82.9738 3051.16 59.4836C2973.58 17.5764 2892.59 12.1364 2816.88 43.7251C2763.02 66.2222 2711.75 102.839 2662.17 138.288C2584.08 194.106 2503.35 251.797 2410.02 256.119C2346.38 259.053 2274.84 238.899 2184.85 192.711C2119.76 159.307 2052.33 117.335 1987.07 76.7292C1903.97 25.0231 1818.01 -28.448 1736.17 -64.7511C1692.11 -84.2573 1652.73 -97.3924 1615.77 -104.883C1574.27 -113.295 1536.87 -114.422 1501.38 -108.349C1481.75 -105.013 1462.22 -97.493 1443.33 -86.0713C1395.84 -57.3294 1345.98 -3.09225 1290.91 79.8048C1241.69 153.829 1192.75 243.745 1145.37 330.693C1110.7 394.354 1074.83 460.211 1038.8 520.04C985.371 608.596 937.534 673.954 892.484 719.821C838.337 774.94 787.321 803.507 736.561 807.06C676.671 811.292 620.49 794.647 564.839 756.188C505.047 714.856 444.9 649.399 380.954 556.002C324.58 473.666 272.61 380.931 222.387 291.287C216.848 281.426 211.347 271.589 205.859 261.814C155.283 171.762 105.463 85.4523 52.0149 19.0871C23.8853 -15.8302 -2.83007 -42.2619 -29.635 -61.6592C-59.2876 -83.1148 -88.3011 -95.4838 -118.34 -99.4957C-185.043 -108.423 -254.504 -75.0285 -330.693 2.57108L-331.245 2.0117C-276.916 -53.3116 -225.981 -86.232 -177.023 -97.3986L-177.071 -97.3224Z" fill="url(#paint3_radial_8246_12602)"/>
<path d="M-167.902 -62.9739C-150.158 -67.021 -132.652 -68.1105 -115.297 -66.2945C-86.2937 -63.2534 -58.1293 -52.3219 -29.2152 -32.8184C-3.07521 -15.1942 23.0761 9.04991 50.7664 41.3271C103.219 102.471 152.971 183.055 203.554 267.136C208.905 276.028 214.27 284.983 219.673 293.962C320.517 462.001 434.805 652.419 570.452 743.522C626.003 780.83 681.811 797.266 740.999 793.814C792.31 790.821 843.696 763.735 898.102 711.037C944.183 666.403 992.411 603.043 1045.61 517.344C1083.98 455.351 1121.99 386.46 1158.77 319.873C1205.02 236.019 1252.87 149.289 1300.94 77.6477C1354.76 -2.61405 1403.54 -55.6623 1450.08 -84.5785C1468.66 -96.1227 1488.03 -103.901 1507.68 -107.699C1543.97 -114.735 1582.28 -114.306 1624.76 -106.445C1662.62 -99.4211 1702.95 -86.5979 1748.05 -67.2317C1831.87 -31.2495 1919.9 22.4658 2005.01 74.3993C2065.64 111.397 2128.31 149.627 2188.95 181.14C2277.92 227.399 2348.47 248.497 2410.98 247.584C2501.95 246.244 2581.22 194.563 2657.84 144.593C2707.33 112.329 2758.49 78.9655 2812.2 59.636C2887.19 32.615 2967.04 41.3484 3043.15 84.7985C3085.85 109.183 3127.16 144.486 3165.92 189.734C3208.01 238.825 3247.51 300.182 3283.36 372.095L3282.66 372.45C3246.82 300.6 3207.36 239.297 3165.33 190.261C3126.62 145.099 3085.38 109.844 3042.76 85.5078C2966.84 42.1774 2887.23 33.4876 2812.47 60.39C2758.86 79.6983 2707.72 113.023 2658.29 145.273C2581.55 195.303 2502.2 247.036 2411 248.394C2348.33 249.312 2277.67 228.173 2188.6 181.873C2127.94 150.329 2065.24 112.076 2004.61 75.0776C1919.5 23.1441 1831.51 -30.5473 1747.76 -66.5126C1702.69 -85.8548 1662.4 -98.6851 1624.61 -105.692C1582.22 -113.574 1544.01 -113.963 1507.82 -106.948C1488.23 -103.163 1468.95 -95.4067 1450.49 -83.9528C1404.03 -55.1198 1355.32 -2.12373 1301.58 78.0548C1253.55 149.689 1205.72 236.381 1159.47 320.235C1122.7 386.853 1084.69 455.744 1046.29 517.744C993.071 603.512 944.789 666.917 898.684 711.589C844.145 764.416 792.579 791.575 741.076 794.579C681.695 798.043 625.749 781.573 570.039 744.138C434.239 652.939 319.899 462.435 219.011 294.341C213.6 285.332 208.235 276.377 202.891 267.515C152.309 183.435 102.601 102.906 50.1629 41.8236C22.5177 9.60136 -3.55749 -14.5948 -29.6523 -32.1641C-58.4523 -51.5957 -86.4787 -62.4935 -115.375 -65.4938C-181.818 -72.4249 -250.599 -36.478 -325.66 44.3549L-326.242 43.8025C-270.594 -16.1606 -218.346 -51.4682 -167.902 -62.9739Z" fill="url(#paint4_radial_8246_12602)"/>
<path d="M-158.813 -29.1292C-143.144 -32.7031 -127.647 -33.8889 -112.212 -32.7769C-84.3442 -30.7163 -57.1528 -21.1941 -29.0841 -3.68349C-3.67824 12.1508 21.8851 34.2454 49.06 63.8346C100.629 119.961 150.154 194.692 200.573 272.774C206.175 281.479 211.821 290.239 217.513 299.054C321.087 459.782 438.486 641.988 575.654 731.472C631.265 767.755 686.844 784.048 745.578 781.319C797.671 778.898 849.599 753.189 904.367 702.789C951.485 659.419 1000.15 597.982 1053.16 515.003C1093.87 451.107 1133.93 379.397 1172.68 310.012C1217.88 229.106 1264.6 145.439 1311.52 76.0494C1364.04 -1.63205 1411.72 -53.5153 1457.23 -82.5227C1474.9 -93.762 1493.48 -101.688 1512.5 -106.024C1513.02 -106.144 1513.55 -106.264 1514.11 -106.391C1551.2 -114.46 1590.38 -114.784 1633.91 -107.456C1672.68 -100.899 1714.01 -88.3712 1760.3 -69.1114C1846.22 -33.3473 1936.59 20.7801 2023.94 73.1157C2079.52 106.405 2136.99 140.86 2192.75 170.194C2280.86 216.582 2350.54 238.696 2412.02 239.744C2500.85 241.275 2578.68 195.566 2653.92 151.361C2703.33 122.343 2754.41 92.3266 2807.91 76.2099C2881.96 53.9373 2960.42 65.8586 3034.83 110.739C3122.96 163.878 3202.16 260.188 3270.26 396.939L3269.56 397.295C3201.52 260.661 3122.41 164.491 3034.43 111.417C2960.21 66.6566 2881.91 54.7309 2808.14 76.971C2754.73 93.0355 2703.69 123.045 2654.33 152.048C2578.98 196.313 2501.07 242.105 2412.01 240.561C2350.39 239.479 2280.61 217.356 2192.38 170.897C2136.62 141.531 2079.13 107.114 2023.54 73.7939C1936.19 21.4583 1845.89 -32.6522 1760 -68.3923C1713.79 -87.6352 1672.52 -100.147 1633.8 -106.679C1590.36 -113.997 1551.28 -113.663 1514.32 -105.623C1513.79 -105.503 1513.26 -105.383 1512.74 -105.263C1493.79 -100.941 1475.29 -93.0672 1457.7 -81.8801C1412.28 -52.9249 1364.68 -1.12487 1312.2 76.4494C1265.3 145.801 1218.58 229.468 1173.41 310.367C1134.67 379.752 1094.61 451.493 1053.86 515.396C1000.84 598.413 952.115 659.896 904.949 703.342C850.055 753.901 797.94 779.652 745.655 782.084C686.766 784.848 631.041 768.491 575.279 732.112C437.959 642.533 320.515 460.272 216.92 299.45C211.228 290.636 205.574 281.845 199.979 273.171C149.567 195.119 100.049 120.419 48.5255 64.3479C21.3957 34.8138 -4.12244 12.7741 -29.4523 -3.01231C-57.4068 -20.451 -84.4912 -29.9325 -112.228 -31.9903C-178.466 -36.8803 -246.608 1.72648 -320.553 86.0238L-321.159 85.5095C-264.23 20.5893 -210.682 -17.2986 -158.782 -29.1362L-158.813 -29.1292Z" fill="url(#paint5_radial_8246_12602)"/>
<path d="M-149.723 4.1609C-136.067 1.04611 -122.51 -0.219119 -108.99 0.351071C-82.2134 1.48594 -55.964 9.59193 -28.7267 25.1716C-4.04063 39.278 20.9036 59.2302 47.5703 86.1623C98.3737 137.504 147.547 206.411 197.628 278.437C204.036 287.676 210.526 296.994 217.038 306.405C322.904 459.042 442.888 632.013 580.891 719.447C636.561 754.705 691.95 770.878 750.161 768.856C777.019 767.917 804.471 760.872 831.782 747.923C857.622 735.668 884.149 717.71 910.636 694.574C958.799 652.499 1007.88 593.023 1060.71 512.725C1103.72 447.195 1145.75 372.788 1186.42 300.844C1230.56 222.723 1276.19 141.981 1322 74.7354C1373.28 -0.542003 1419.86 -51.2603 1464.43 -80.38C1482.17 -91.9958 1501.07 -100.254 1520.59 -104.966C1521.7 -105.22 1522.82 -105.475 1523.9 -105.722C1560.91 -114.162 1600.06 -115.035 1643.43 -108.42C1683.22 -102.359 1725.68 -90.0537 1773.25 -70.8594C1861.59 -35.1909 1954.52 19.5922 2044.44 72.5836C2094.46 102.083 2146.21 132.56 2196.54 159.412C2283.84 205.952 2352.64 229.05 2413.08 232.097C2499.72 236.476 2576.03 196.66 2649.86 158.158C2699.24 132.411 2750.31 105.789 2803.65 92.9708C2804.64 92.7447 2805.6 92.5258 2806.59 92.2998C2878.8 75.8288 2954.8 91.2163 3026.59 136.89C3112.88 191.819 3190.49 287.741 3257.25 422.025L3256.55 422.381C3189.86 288.244 3112.35 192.394 3026.19 137.568C2953.63 91.3846 2876.74 76.2019 2803.86 93.7698C2750.62 106.567 2699.61 133.175 2650.26 158.915C2576.34 197.469 2499.91 237.313 2413.08 232.946C2352.53 229.889 2283.61 206.788 2196.22 160.169C2145.9 133.348 2094.15 102.84 2044.09 73.3477C1954.25 20.3733 1861.32 -34.3788 1773.02 -70.0233C1725.51 -89.2008 1683.1 -101.482 1643.37 -107.557C1600.1 -114.162 1561.04 -113.28 1524.13 -104.861C1523.02 -104.606 1521.93 -104.359 1520.82 -104.105C1501.4 -99.4141 1482.59 -91.1769 1464.89 -79.6374C1420.43 -50.6079 1373.9 0.0653849 1322.71 75.2595C1276.92 142.467 1231.29 223.209 1187.15 301.33C1146.49 373.305 1104.43 447.719 1061.42 513.249C1008.54 593.623 959.409 653.176 911.184 695.265C884.612 718.453 858.03 736.455 832.135 748.756C804.738 761.758 777.162 768.83 750.204 769.759C691.831 771.786 636.311 755.61 580.482 720.225C442.334 632.726 322.298 459.67 216.387 306.977C209.875 297.567 203.384 288.249 196.977 279.01C146.903 207.014 97.7746 138.163 47.0093 86.8449C20.3877 59.9677 -4.51853 40.0394 -29.1285 25.981C-56.2517 10.4731 -82.3941 2.40795 -109.009 1.26878C-175.19 -1.51377 -242.726 39.8909 -315.506 127.87L-316.112 127.355C-257.988 57.1061 -203.174 16.4828 -149.695 4.28495L-149.723 4.1609Z" fill="url(#paint6_radial_8246_12602)"/>
<path d="M-140.64 36.8327C-128.935 34.1629 -117.273 32.8732 -105.648 32.9946C-79.9545 33.2348 -54.633 39.9865 -28.2199 53.6663C-4.24671 66.0757 20.1237 83.9404 46.2343 108.292C96.3767 155.022 147.041 220.75 194.648 284.076C202.465 294.494 210.417 305.077 218.428 315.777C326.047 459.532 448.008 622.461 586.117 707.359C641.854 741.623 697.015 757.652 754.726 756.298C855.085 753.96 957.632 673.514 1068.27 510.283C1113.5 443.335 1157.46 366.43 1199.99 292.071C1243.08 216.637 1287.68 138.642 1332.42 73.4345C1382.5 0.454146 1428.05 -49.2135 1471.63 -78.4004C1489.01 -90.0314 1507.65 -98.5576 1527.07 -103.704C1566.02 -114.024 1607.37 -116.016 1653.36 -109.739C1694.32 -104.139 1738.06 -92.0307 1787.12 -72.782C1878.18 -37.0175 1974.06 18.6916 2066.79 72.5754C2110.69 98.0883 2156.09 124.466 2200.34 148.366C2286.87 195.083 2354.78 219.165 2414.14 224.157C2498.47 231.249 2573.28 197.319 2645.64 164.503C2695.06 142.074 2746.17 118.902 2799.39 109.437C2871.55 96.5992 2947.23 115.028 3018.31 162.723C3102.78 219.403 3178.76 314.982 3244.19 446.762L3243.49 447.118C3178.15 315.448 3102.23 219.986 3017.88 163.377C2946.99 115.802 2871.48 97.3999 2799.54 110.22C2746.41 119.663 2695.36 142.821 2646.01 165.236C2573.56 198.104 2498.66 232.086 2414.13 224.975C2354.67 219.973 2286.65 195.85 2200.02 149.092C2155.77 125.192 2110.37 98.8144 2066.46 73.3015C1973.78 19.4417 1877.9 -36.2676 1786.9 -72.0151C1737.92 -91.2469 1694.24 -103.338 1653.35 -108.921C1607.46 -115.188 1566.24 -113.225 1527.35 -102.919C1508.02 -97.7937 1489.43 -89.3128 1472.14 -77.7339C1428.65 -48.5992 1383.17 0.985299 1333.15 73.8896C1288.4 139.066 1243.83 217.054 1200.73 292.457C1158.21 366.847 1114.25 443.782 1068.99 510.738C958.204 674.166 855.431 754.762 754.81 757.095C696.93 758.422 641.638 742.39 585.749 708.03C447.526 623.06 325.513 460.046 217.849 316.235C209.837 305.535 201.916 294.945 194.069 284.534C146.499 221.232 95.8351 155.504 45.745 108.86C19.6795 84.5638 -4.61485 66.747 -28.55 54.3615C-54.849 40.7535 -80.0705 34.0116 -105.633 33.7741C-171.842 33.1512 -238.862 77.5371 -310.464 169.391L-311.094 168.914C-251.898 92.9398 -195.799 49.3809 -140.647 36.8017L-140.64 36.8327Z" fill="url(#paint7_radial_8246_12602)"/>
<path d="M-131.516 68.8426C-121.731 66.6107 -111.95 65.3584 -102.166 65.117C-77.5187 64.4866 -53.08 69.939 -27.4841 81.75C-4.21661 92.4935 19.5561 108.309 45.1557 130.134C94.8104 172.441 144.788 232.16 191.697 289.708C201.702 302.008 211.669 314.285 222.192 327.282C330.908 461.425 454.101 613.47 591.317 695.31C647.127 728.611 702.083 744.458 759.272 743.811C812.985 743.206 868.108 721.075 923.118 678.025C973.296 638.786 1023.25 583.155 1075.78 507.95C1123.25 439.806 1169.05 360.556 1213.33 283.874C1255.42 211.018 1298.96 135.678 1342.68 72.4009C1391.59 1.61031 1436.1 -47.0377 1478.75 -76.306C1495.73 -87.9763 1514.16 -96.7152 1533.47 -102.326C1573.6 -113.957 1616.24 -116.832 1663.72 -111.025C1706.01 -105.86 1751.22 -93.9215 1801.91 -74.4917C1896.07 -38.4228 1995.28 18.5831 2091.22 73.7228C2128.3 95.0184 2166.61 117.042 2204.05 137.504C2291.03 185.064 2356.14 209.396 2415.08 216.439C2497.06 226.22 2570.26 198.074 2641.07 170.864C2690.61 151.833 2741.79 132.134 2794.95 126.109C2866.18 118.019 2940.48 139.698 3009.89 188.785C3092.51 247.224 3166.87 342.422 3230.96 471.736L3230.26 472.091C3166.23 342.894 3091.92 247.783 3009.42 189.416C2940.16 140.424 2866.03 118.803 2795.03 126.875C2741.97 132.909 2690.81 152.57 2641.33 171.588C2570.43 198.818 2497.1 226.993 2414.96 217.216C2355.89 210.17 2290.71 185.79 2203.62 138.19C2166.18 117.696 2127.83 95.6797 2090.78 74.3771C1994.88 19.2614 1895.68 -37.7446 1801.59 -73.7656C1750.93 -93.1714 1705.8 -105.093 1663.57 -110.241C1616.19 -116.038 1573.67 -113.191 1533.65 -101.551C1514.43 -95.9611 1496.09 -87.2434 1479.16 -75.6492C1436.6 -46.4332 1392.13 2.13866 1343.3 72.8461C1299.61 136.085 1256.07 211.425 1213.98 284.281C1169.67 360.97 1123.87 440.251 1076.38 508.402C1023.76 583.659 973.778 639.328 923.552 678.644C868.401 721.791 813.124 743.958 759.218 744.574C701.867 745.225 646.773 729.344 590.848 695.971C453.518 614.06 330.281 461.959 221.519 327.762C210.996 314.764 201.029 302.488 191.024 290.187C144.122 232.67 94.183 172.975 44.5735 130.724C19.057 108.977 -4.6467 93.1788 -27.8761 82.4592C-53.3649 70.6891 -77.6967 65.2775 -102.221 65.8797C-168.585 67.5758 -235.09 115.074 -305.49 211.057L-306.12 210.581C-245.944 128.478 -188.539 81.7836 -131.592 68.7947L-131.516 68.8426Z" fill="url(#paint8_radial_8246_12602)"/>
<path d="M-122.261 100.137C-114.333 98.3294 -106.419 97.1767 -98.4806 96.7036C-53.9245 93.9464 -7.20328 111.965 44.3142 151.727C88.7918 186.047 132.574 232.172 188.791 295.394C201.814 310.073 214.873 324.906 228.723 340.636C337.755 464.593 461.338 605.067 596.624 683.301C652.539 715.632 707.267 731.336 763.957 731.357C818.496 731.379 874.207 710.68 929.495 669.851C979.964 632.6 1031.74 577.369 1083.44 505.681C1133.09 436.549 1180.7 355.061 1226.7 276.224C1267.82 205.809 1310.33 132.986 1353.04 71.57C1400.83 2.86199 1444.33 -44.8044 1486.05 -74.1539C1502.67 -85.8396 1520.85 -94.8462 1540.05 -100.923C1581.5 -113.999 1625.59 -117.792 1674.79 -112.473C1718.58 -107.748 1765.47 -95.8354 1818.09 -76.095C1915.81 -39.4653 2018.83 19.2798 2118.44 76.0939C2147.83 92.8454 2178.21 110.189 2207.96 126.631C2294.28 174.439 2358.52 199.717 2416.24 208.671C2495.74 221.008 2567.28 198.59 2636.49 176.933C2686.2 161.353 2737.62 145.254 2790.8 142.748C2861.05 139.414 2934.01 164.335 3001.75 214.815C3082.52 274.982 3155.27 369.829 3218.05 496.67L3217.35 497.025C3154.66 370.294 3081.96 275.533 3001.31 215.438C2933.73 165.085 2860.95 140.222 2790.88 143.545C2737.8 146.061 2686.44 162.145 2636.76 177.718C2567.47 199.427 2495.84 221.866 2416.17 209.503C2358.32 200.546 2294 175.22 2207.6 127.364C2177.85 110.891 2147.47 93.5476 2118.08 76.7961C2018.47 20.013 1915.48 -38.7392 1817.84 -75.321C1765.26 -95.0375 1718.48 -106.909 1674.72 -111.642C1625.62 -116.95 1581.65 -113.185 1540.33 -100.137C1521.18 -94.1063 1503.09 -85.1209 1486.56 -73.4874C1444.93 -44.1901 1401.48 3.40022 1353.73 72.0321C1311.06 133.441 1268.53 206.233 1227.45 276.641C1181.42 355.485 1133.81 437.004 1084.13 506.143C1032.38 577.908 980.529 633.221 929.998 670.486C874.538 711.42 818.673 732.155 763.972 732.137C707.12 732.12 652.285 716.375 596.256 683.972C460.856 605.666 337.228 465.138 228.157 341.157C214.346 325.451 201.28 310.586 188.233 295.946C132.054 232.748 88.3166 186.677 43.877 152.381C-7.48118 112.747 -54.0264 94.7852 -98.3896 97.531C-165.119 101.627 -231.129 152.437 -300.256 252.861L-300.909 252.422C-239.828 163.719 -181.114 113.626 -122.185 100.185L-122.261 100.137Z" fill="url(#paint9_radial_8246_12602)"/>
<path d="M-112.871 130.586C-106.833 129.209 -100.771 128.218 -94.7181 127.62C-51.9038 123.368 -6.6347 138.163 43.675 172.914C87.7994 203.4 132.413 246.172 185.81 301.033C202.792 318.495 219.979 336.432 238.155 355.416C346.611 468.707 469.561 597.123 601.819 671.22C657.776 702.596 712.307 718.148 768.498 718.838C823.864 719.487 880.131 700.227 935.729 661.611C987.161 625.869 1039.39 572.623 1090.98 503.309C1142.83 433.382 1192.14 349.778 1239.85 268.886C1323.41 127.197 1402.35 -6.65008 1493.26 -72.1121C1509.54 -83.8512 1527.47 -93.0945 1546.54 -99.5979C1589.49 -114.255 1635.28 -119.023 1686.43 -114.15C1731.99 -109.796 1780.78 -97.8588 1835.63 -77.6161C1937.43 -40.0594 2044.82 20.9842 2148.65 80.0011C2169.35 91.7552 2190.76 103.933 2211.75 115.686C2321.65 177.299 2379.31 193.574 2417.29 200.862C2494.26 215.637 2564.02 198.876 2631.51 182.668C2681.51 170.644 2733.21 158.231 2786.51 159.353C2855.83 160.798 2927.41 188.969 2993.48 240.81C3072.36 302.712 3143.52 397.171 3204.96 521.576L3204.26 521.932C3142.88 397.643 3071.81 303.263 2993.01 241.441C2927.06 189.703 2855.66 161.589 2786.53 160.164C2733.34 159.051 2681.67 171.488 2631.72 183.467C2564.15 199.696 2494.28 216.479 2417.18 201.67C2344.79 187.778 2269.18 148.813 2211.4 116.419C2190.4 104.635 2168.99 92.4884 2148.3 80.7344C2044.47 21.7175 1937.15 -39.3093 1835.38 -76.8421C1780.61 -97.0368 1731.85 -108.981 1686.39 -113.325C1635.34 -118.188 1589.67 -113.449 1546.82 -98.8128C1527.81 -92.3235 1509.97 -83.1014 1493.74 -71.4385C1402.97 -6.07381 1324.08 127.697 1240.57 269.31C1192.85 350.202 1143.52 433.845 1091.68 503.802C1040.04 573.193 987.733 626.522 936.239 662.277C880.501 700.991 824.087 720.317 768.52 719.649C712.205 718.987 657.56 703.363 601.464 671.953C469.124 597.777 346.136 469.337 237.634 355.992C219.459 337.007 202.271 319.07 185.29 301.608C131.9 246.778 87.3241 204.031 43.2759 173.593C-6.84362 138.96 -51.9437 124.193 -94.5652 128.433C-161.748 135.112 -227.376 189.456 -295.179 294.537L-295.833 294.099C-233.998 198.274 -173.93 144.545 -112.771 130.596L-112.871 130.586Z" fill="url(#paint10_radial_8246_12602)"/>
<path d="M-103.606 160.215C-99.3637 159.247 -95.0789 158.466 -90.7896 157.846C-49.6171 152.109 -5.76493 163.834 43.2724 193.722C89.8443 222.084 137.865 264.796 182.835 306.703C204.764 327.147 227.181 348.589 250.905 371.332C357.812 473.688 478.974 589.691 607.025 659.202C663.094 689.638 717.397 705.048 773.043 706.351C882.272 708.906 991.776 639.823 1098.53 500.968C1152.52 430.455 1203.51 344.802 1252.84 261.977C1334.44 124.976 1411.51 -4.46626 1500.41 -70.0246C1516.33 -81.779 1534.01 -91.259 1552.98 -98.2276C1597.7 -114.691 1645.44 -120.491 1698.91 -115.985C1746.51 -111.966 1797.56 -99.8272 1855 -78.836C1961.58 -39.8901 2074.02 24.1765 2182.76 86.1514C2193.69 92.3686 2204.63 98.6167 2215.52 104.81C2276.49 139.447 2348.26 177.004 2418.33 193.123C2492.59 210.21 2560.49 198.964 2626.17 188.095C2676.58 179.76 2728.73 171.129 2782.22 175.99C2814.89 178.977 2848 187.606 2880.64 201.694C2916.3 217.081 2951.47 239.008 2985.22 266.868C3062.25 330.498 3131.79 424.575 3191.89 546.514L3191.19 546.87C3041.73 243.671 2870.77 184.86 2782.17 176.784C2728.77 171.902 2676.67 180.556 2626.31 188.878C2560.58 199.76 2492.61 211.02 2418.18 193.907C2348.01 177.778 2276.17 140.173 2215.16 105.512C2204.24 99.326 2193.33 93.0708 2182.4 86.8536C2073.7 24.9026 1961.29 -39.1399 1854.75 -78.0618C1797.38 -99.0363 1746.41 -111.158 1698.87 -115.16C1645.5 -119.656 1597.88 -113.885 1553.29 -97.4496C1534.41 -90.5023 1516.8 -81.0364 1500.92 -69.3581C1412.16 -3.89708 1335.11 125.476 1253.55 262.401C1204.23 345.226 1153.2 430.886 1099.19 501.469C992.293 640.521 882.587 709.715 773.065 707.161C717.288 705.855 662.84 690.382 606.664 659.904C478.537 590.346 357.33 474.287 250.385 371.907C226.668 349.195 204.244 327.722 182.315 307.278C137.382 265.395 89.3761 222.745 42.8733 194.4C-5.97385 164.632 -49.6571 152.934 -90.6748 158.636C-123.95 163.289 -155.71 179.015 -187.761 206.748C-221.985 236.378 -255.49 278.731 -290.174 336.196L-290.852 335.796C-256.12 278.255 -222.567 235.826 -188.257 206.143C-160.237 181.875 -132.412 166.753 -103.582 160.177L-103.606 160.215Z" fill="url(#paint11_radial_8246_12602)"/>
<path d="M-93.4909 188.704C-91.2303 188.188 -88.9866 187.742 -86.7358 187.326C-47.1051 180.114 -4.61757 188.855 43.1209 214.048C89.5633 238.557 136.301 275.788 179.893 312.365C207.734 335.734 236.561 360.999 267.092 387.735C371.365 479.111 489.521 582.653 612.265 647.176C668.414 676.681 722.52 691.939 777.629 693.886C889.512 697.793 1000.06 632.128 1106.09 498.689C1162.22 427.719 1214.87 340.157 1265.79 255.467C1345.45 122.955 1420.69 -2.2211 1507.64 -67.8899C1523.23 -79.6667 1540.69 -89.3905 1559.48 -96.8411C1754.07 -173.683 1990.6 -37.6359 2219.36 93.9194C2280.1 128.837 2351.36 167.031 2419.42 185.338C2490.85 204.571 2556.72 198.714 2620.42 193.027C2671.41 188.477 2724.12 183.793 2778 192.612C2810.25 197.881 2842.76 208.473 2874.69 224.059C2909.63 241.112 2944.03 264.257 2976.99 292.918C3052.13 358.251 3120.05 451.948 3178.84 571.445L3178.14 571.8C3119.37 452.397 3051.52 358.748 2976.48 293.525C2912.92 238.273 2846.09 204.616 2777.86 193.427C2724.08 184.617 2671.4 189.325 2620.48 193.862C2556.71 199.532 2490.78 205.403 2419.21 186.136C2351.04 167.788 2279.75 129.57 2218.97 94.6286C1990.39 -36.8379 1754.01 -172.82 1559.79 -96.094C1541.05 -88.6886 1523.68 -78.986 1508.15 -67.2543C1421.33 -1.6828 1346.14 123.417 1266.49 255.86C1215.58 340.581 1162.94 428.143 1106.75 499.158C1000.54 632.832 889.827 698.603 777.644 694.666C722.373 692.723 668.191 677.417 611.935 647.871C489.091 583.338 370.89 479.741 266.61 388.334C236.11 361.592 207.29 336.358 179.441 312.957C135.888 276.404 89.1951 239.228 42.8217 214.736C-4.73359 189.632 -47.0522 180.918 -86.528 188.095C-88.7788 188.51 -91.0225 188.957 -93.2521 189.465C-124.497 196.592 -154.241 213.587 -183.994 241.252C-218.075 272.938 -251.112 317.63 -285.06 377.896L-285.768 377.503C-251.804 317.168 -218.688 272.392 -184.552 240.661C-154.689 212.906 -124.829 195.852 -93.4599 188.697L-93.4909 188.704Z" fill="url(#paint12_radial_8246_12602)"/>
<path d="M-82.7987 216.017L-82.5509 215.961C-44.3551 207.314 -3.21096 213.165 43.171 233.838C89.66 254.553 136.844 288.028 176.91 318.004C211.717 344.058 248.123 373.271 286.699 404.142C387.194 484.668 501.085 575.938 617.489 635.088C673.726 663.692 727.603 678.807 782.23 681.354C896.85 686.692 1008.36 624.426 1113.69 496.303C1171.98 425.07 1226.21 335.644 1278.65 249.173C1356.42 120.941 1429.86 -0.137575 1514.85 -65.8478C1530.14 -77.654 1547.31 -87.6384 1565.98 -95.5161C1653.13 -132.326 1755.91 -129.606 1880.16 -87.2173C1993.2 -48.6678 2111.58 18.0235 2223.16 83.0053C2286.87 120.115 2354.86 157.26 2420.48 177.56C2488.94 198.745 2552.57 198.064 2614.09 197.407C2668.19 196.811 2719.31 196.275 2773.71 209.248C2841.1 225.326 2906.72 262.229 2968.72 318.945C3041.99 385.944 3108.3 479.259 3165.79 596.345L3165.09 596.7C3107.65 479.701 3041.4 386.472 2968.21 319.552C2906.29 262.914 2840.79 226.083 2773.53 210.039C2719.24 197.076 2668.15 197.636 2614.11 198.218C2552.53 198.888 2488.83 199.553 2420.27 178.358C2354.58 158.01 2286.53 120.879 2222.8 83.7385C2111.27 18.7807 1992.92 -47.8867 1879.95 -86.4193C1755.88 -128.75 1653.3 -131.451 1566.32 -94.7141C1547.75 -86.8577 1530.61 -76.9113 1515.4 -65.1573C1430.52 0.462669 1357.1 121.503 1279.38 249.659C1226.92 336.168 1172.68 425.594 1114.37 496.866C1008.9 625.216 897.148 687.57 782.259 682.195C727.533 679.639 673.548 664.483 617.204 635.838C500.755 576.633 386.826 485.339 286.293 404.789C247.741 373.88 211.311 344.705 176.535 318.644C136.531 288.654 89.3609 255.241 42.9479 234.574C-3.28898 213.965 -44.2641 208.142 -82.2741 216.746L-82.5219 216.802C-116.678 224.593 -148.669 243.732 -180.322 275.353C-214.255 309.257 -246.857 356.427 -279.971 419.635L-280.672 419.273C-247.542 355.996 -214.892 308.749 -180.873 274.794C-149.111 243.082 -117.01 223.853 -82.6987 216.027L-82.7987 216.017Z" fill="url(#paint13_radial_8246_12602)"/>
<path d="M-71.3771 241.957C3.5928 224.858 81.1569 262.267 173.959 323.636C216.658 351.87 261.831 384.955 309.669 420.01C405.299 490.064 513.677 569.445 622.72 623.032C679.076 650.728 732.725 665.699 786.808 668.859C845.74 672.284 904.307 658.827 960.831 628.841C1016.01 599.551 1070.01 554.189 1121.23 493.963C1181.64 422.604 1237.44 331.421 1291.4 243.231C1367.31 119.141 1439 1.95313 1522.04 -63.7674C1537.22 -75.7766 1553.71 -85.7368 1572.44 -94.1529C1659.74 -133.475 1761.91 -133.584 1884.8 -94.4411C1999.17 -58.0237 2116.84 7.10192 2226.96 72.0914C2286.43 107.167 2355.38 146.54 2421.51 169.789C2486.74 192.689 2547.87 196.916 2607.03 201.039C2662.18 204.87 2714.24 208.459 2769.4 225.892C2835.78 246.832 2900.04 286.916 2960.43 345.01C3031.79 413.651 3096.49 506.616 3152.67 621.259L3151.97 621.614C3095.83 507.026 3031.2 414.178 2959.88 345.593C2899.57 287.577 2835.39 247.573 2769.14 226.635C2714.06 209.25 2662.03 205.654 2606.95 201.84C2547.73 197.731 2486.53 193.487 2421.2 170.578C2355.01 147.342 2285.98 107.922 2226.5 72.8148C2116.4 7.85625 1998.8 -57.2523 1884.49 -93.6529C1761.79 -132.707 1659.8 -132.64 1572.71 -93.3989C1554.04 -84.9968 1537.63 -75.089 1522.48 -63.1178C1439.52 2.51951 1367.88 119.632 1292.02 243.645C1238.06 331.866 1182.24 423.088 1121.81 494.484C1070.51 554.793 1016.46 600.232 961.186 629.543C904.515 659.596 845.824 673.08 786.73 669.66C732.554 666.521 678.798 651.509 622.335 623.772C513.223 570.168 404.8 490.732 309.17 420.678C261.339 385.655 216.197 352.562 173.498 324.328C80.886 263.079 3.45995 225.704 -71.2313 242.74C-73.5228 243.262 -75.8002 243.847 -78.0705 244.463C-112.933 254.013 -145.257 275.12 -176.855 308.98C-210.706 345.246 -242.799 395.073 -274.989 461.333L-275.722 460.978C-243.484 394.642 -211.336 344.77 -177.437 308.427C-145.736 274.446 -113.295 253.28 -78.2783 243.695C-75.977 243.072 -73.6996 242.487 -71.4081 241.964L-71.3771 241.957Z" fill="url(#paint14_radial_8246_12602)"/>
<path d="M-59.4626 266.48C16.5293 249.147 95.9823 286.125 170.955 329.312C222.41 358.942 277.331 395.774 335.483 434.772C429.622 497.859 526.93 563.127 627.898 611.02C684.372 637.808 737.831 652.659 791.325 656.378C851.243 660.556 910.367 648.539 967.055 620.701C1023.18 593.121 1077.59 549.719 1128.75 491.66C1191.33 420.362 1248.61 327.436 1304.02 237.579C1378.08 117.501 1448.05 4.0645 1529.17 -61.6425C1544.08 -73.6881 1560.32 -83.885 1578.86 -92.7452C1771.1 -184.874 2005.75 -73.1925 2230.68 61.2601C2295.93 100.269 2359.73 137.327 2422.48 162.064C2484.2 186.385 2542.6 195.215 2599.08 203.734C2655.53 212.26 2708.87 220.319 2765.08 242.535C2830.4 268.383 2893.33 311.641 2952.15 371.106C3021.64 441.381 3084.71 533.934 3139.6 646.196L3138.9 646.552C3068.27 502.156 2946.06 314.981 2764.83 243.278C2708.71 221.072 2655.41 213.037 2598.99 204.504C2542.48 195.961 2484.04 187.138 2422.25 162.769C2359.43 138.015 2295.63 100.926 2230.3 61.9003C2005.57 -72.4015 1771.13 -184.033 1579.21 -92.0433C1560.74 -83.1973 1544.55 -73.0456 1529.7 -61.045C1448.65 4.54776 1378.74 117.939 1304.7 237.979C1249.27 327.874 1191.95 420.807 1129.36 492.174C1078.12 550.317 1023.66 593.794 967.41 621.403C910.574 649.307 851.327 661.353 791.278 657.172C737.684 653.443 684.118 638.551 627.567 611.715C526.562 563.798 429.216 498.506 335.07 435.388C276.925 396.421 222.003 359.589 170.58 329.952C90.999 284.13 6.3051 245.314 -73.6676 271.188C-109.256 282.698 -141.847 305.921 -173.369 342.112C-207.126 380.934 -238.713 433.55 -269.92 502.978L-270.645 502.654C-239.422 433.157 -207.817 380.472 -173.975 341.598C-142.35 305.285 -109.642 282.003 -73.9064 270.427C-69.1127 268.877 -64.2695 267.544 -59.4387 266.442L-59.4626 266.48Z" fill="url(#paint15_radial_8246_12602)"/>
<path d="M1665.66 -120.504C1733.51 -135.979 1808.94 -132.076 1893.97 -108.899C1990.12 -82.7099 2098.32 -32.0953 2234.5 50.3084C2296.45 87.8205 2360.51 126.581 2423.57 154.248C2481.41 179.615 2536.62 192.567 2590.03 205.079C2648.23 218.719 2703.17 231.603 2760.79 259.141C2825.04 289.865 2886.64 336.297 2943.85 397.171C3011.43 469.057 3072.91 561.221 3126.51 671.103L3125.81 671.459C3072.23 561.67 3010.83 469.553 2943.3 397.722C2886.14 336.934 2824.64 290.544 2760.47 259.867C2702.91 232.346 2648.02 219.486 2589.85 205.839C2536.4 193.303 2481.16 180.358 2423.24 154.975C2360.11 127.29 2296.05 88.4987 2234.07 50.9936C2097.96 -31.3932 1989.84 -81.9598 1893.76 -108.132C1773.78 -140.825 1673.02 -135.101 1585.67 -90.7109C1567.4 -81.421 1551.43 -71.0255 1536.88 -58.9644C1457.75 6.5837 1389.54 116.323 1317.3 232.528C1260.41 324.028 1201.63 418.666 1136.87 489.841C1085.7 545.848 1030.8 587.372 973.631 613.263C916.676 639.075 856.834 649.657 795.823 644.685C742.812 640.366 689.45 625.656 632.773 599.697C540.445 557.402 450.424 502.086 363.349 448.545C294.013 405.932 228.504 365.675 167.618 335.685C37.8804 271.779 -24.978 280.276 -69.3488 296.986C-105.737 310.701 -138.69 336.193 -170.118 374.94C-203.838 416.494 -234.83 472.008 -264.901 544.699L-265.619 544.407C-235.532 471.646 -204.492 416.056 -170.724 374.426C-139.186 335.588 -106.124 310.007 -69.6185 296.232C9.72751 266.325 95.009 299.005 167.972 334.951C228.896 364.966 294.405 405.222 363.779 447.86C450.847 501.37 540.868 556.685 633.127 598.964C689.735 624.906 742.99 639.576 795.901 643.884C856.774 648.823 916.492 638.269 973.33 612.516C1030.38 586.684 1085.19 545.212 1136.29 489.288C1200.99 418.159 1259.79 323.582 1316.65 232.09C1388.91 115.847 1457.13 6.03846 1536.38 -59.5999C1550.98 -71.7062 1567.01 -82.1157 1585.34 -91.4509C1610.91 -104.46 1637.63 -114.143 1665.66 -120.535L1665.66 -120.504Z" fill="url(#paint16_radial_8246_12602)"/>
<path d="M1681.71 -123.708C1700.41 -127.974 1719.61 -130.818 1739.26 -132.201C1788.31 -135.689 1841.93 -130.271 1898.61 -116.154C1996.05 -91.8588 2107.18 -40.9976 2238.3 39.4251C2243.07 42.3494 2247.88 45.2976 2252.65 48.2218C2309.33 83.0228 2367.94 119.014 2424.63 146.501C2478.11 172.409 2529.65 188.871 2579.47 204.749C2639.9 224.044 2696.99 242.243 2756.51 275.808C2819.65 311.385 2879.9 360.997 2935.58 423.297C3001.27 496.787 3061.13 588.539 3113.44 696.041L3112.74 696.397C3060.44 588.957 3000.63 497.26 2934.98 423.825C2879.35 361.611 2819.18 312.047 2756.12 276.517C2696.65 243.007 2639.62 224.794 2579.22 205.523C2529.37 189.621 2477.79 173.166 2424.28 147.235C2367.55 119.754 2308.91 83.7391 2252.23 48.9382C2247.46 46.0139 2242.68 43.0586 2237.88 40.1414C2106.83 -40.2335 1995.77 -91.0778 1898.4 -115.356C1841.79 -129.456 1788.27 -134.865 1739.29 -131.36C1686.55 -127.618 1637.07 -113.461 1592.19 -89.2932C1574.17 -79.6044 1558.41 -68.9651 1544.08 -56.8224C1466.84 8.61909 1400.32 114.876 1329.88 227.376C1271.59 320.467 1211.31 416.718 1144.43 487.562C1093.33 541.464 1037.95 581.042 979.899 605.179C922.825 628.897 862.451 638.002 800.415 632.252C747.993 627.375 694.86 612.808 638.019 587.702C554.695 550.889 472.613 504.528 393.251 459.667C312.175 413.86 235.579 370.554 164.689 341.409C118.099 322.251 80.0537 311.42 44.9838 307.349C4.22527 302.617 -31.7785 307.306 -65.0615 321.781C-102.293 337.939 -135.621 365.93 -166.988 407.371C-200.653 451.881 -231.045 510.455 -259.835 586.476L-260.585 586.19C-231.746 510.093 -201.338 451.45 -167.618 406.895C-136.179 365.339 -102.711 337.251 -65.3622 321.034C-31.9553 306.531 4.17231 301.814 45.0998 306.572C80.2387 310.66 118.322 321.515 165.012 340.683C235.94 369.851 312.536 413.157 393.65 458.989C473.012 503.85 555.063 550.218 638.349 587.007C695.114 612.065 748.147 626.622 800.5 631.482C862.405 637.23 922.656 628.153 979.613 604.494C1037.58 580.409 1092.84 540.89 1143.86 487.071C1210.69 416.272 1270.94 320.06 1329.2 227.007C1399.67 114.469 1466.22 8.17397 1543.57 -57.3578C1557.92 -69.5386 1573.71 -80.1849 1591.78 -89.9189C1620.04 -105.14 1650.11 -116.403 1681.67 -123.6L1681.71 -123.708Z" fill="url(#paint17_radial_8246_12602)"/>
<path d="M1698.18 -127.496C1713.38 -130.964 1728.93 -133.499 1744.72 -135.111C1793.73 -140.058 1847.07 -136.172 1903.23 -123.471C2002.83 -101.005 2113.66 -51.2842 2242.1 28.5111C2253.45 35.5471 2264.93 42.748 2276.06 49.7333C2325.28 80.5272 2376.17 112.406 2425.69 138.724C2474.15 164.503 2521.28 183.572 2566.83 202.021C2630.24 227.683 2690.15 251.959 2752.26 292.437C2888.26 381.079 3005.39 525.274 3100.42 720.934L3099.71 721.29C3004.78 525.739 2887.71 381.692 2751.85 293.084C2689.78 252.63 2629.92 228.409 2566.56 202.733C2520.98 184.291 2473.85 165.191 2425.36 139.388C2375.82 113.039 2324.94 81.1914 2275.69 50.3736C2264.56 43.4192 2253.08 36.2183 2241.73 29.1823C2113.37 -50.5341 2002.61 -100.238 1903.11 -122.694C1847.03 -135.348 1793.78 -139.254 1744.84 -134.321C1692.58 -129.057 1643.43 -113.443 1598.73 -88.0133C1580.94 -77.8876 1565.46 -67.0498 1551.35 -54.7944C1476.01 10.5095 1411.15 113.384 1342.46 222.287C1282.8 316.931 1221.1 414.779 1152.03 485.176C1050.85 587.887 934.089 633.146 805.003 619.657C753.208 614.246 700.303 599.823 643.299 575.569C569.014 543.969 495.241 505.468 423.883 468.274C330.849 419.746 242.962 373.926 161.824 346.989C116.185 331.855 76.904 324.176 41.6646 323.504C0.894828 322.722 -35.0458 331.115 -68.256 349.195C-142.943 389.816 -203.937 481.045 -254.712 628.076L-255.454 627.821C-204.591 480.606 -143.47 389.219 -68.6115 348.493C-35.2846 330.354 0.810893 321.926 41.7116 322.71C77.02 323.4 116.401 331.088 162.109 346.239C243.34 373.155 331.234 419.006 424.306 467.558C495.633 504.758 569.399 543.229 643.653 574.836C700.588 599.073 753.424 613.479 805.15 618.873C933.967 632.326 1050.52 587.147 1151.51 484.609C1220.5 414.265 1282.17 316.454 1341.84 221.842C1410.55 112.869 1475.42 9.95717 1550.88 -55.437C1565.02 -67.6994 1580.56 -78.5825 1598.38 -88.7152C1629.63 -106.512 1663.09 -119.494 1698.24 -127.51L1698.18 -127.496Z" fill="url(#paint18_radial_8246_12602)"/>
<path d="M1714.88 -131.665C1726.47 -134.307 1738.24 -136.405 1750.16 -137.982C1799.11 -144.45 1852.15 -141.998 1907.85 -130.757C1959.93 -120.224 2015.93 -101.678 2074.27 -75.5757C2128.21 -51.4715 2185.96 -20.0811 2245.9 17.6279C2264.92 29.6013 2284.16 41.9495 2302.79 53.9146C2343.51 80.0549 2385.6 107.057 2426.72 130.953C2469.19 155.618 2510.87 176.093 2551.15 195.874C2618.59 229.004 2682.28 260.28 2747.97 309.073C2880.53 407.603 2994.71 554.559 3087.34 745.872L3086.64 746.227C2994.03 555.039 2879.94 408.192 2747.5 309.735C2681.88 260.958 2618.23 229.706 2550.83 196.6C2510.51 176.795 2468.83 156.32 2426.36 131.655C2385.2 107.735 2343.11 80.7331 2302.39 54.5928C2283.77 42.6587 2264.53 30.2795 2245.51 18.3372C2185.6 -19.3789 2127.89 -50.7144 2073.98 -74.8256C2015.68 -100.904 1959.76 -119.433 1907.71 -129.942C1852.11 -141.174 1799.14 -143.608 1750.28 -137.162C1698.51 -130.344 1649.67 -113.334 1605.21 -86.6195C1587.67 -76.095 1572.42 -64.9823 1558.54 -52.6833C1485.08 12.4209 1421.88 112.012 1354.95 217.481C1293.91 313.646 1230.81 413.086 1159.59 482.897C1059.41 580.714 941.641 622.55 809.594 607.224C758.427 601.278 705.758 587.03 648.544 563.575C583.039 536.758 517.533 505.081 454.224 474.468C349.391 423.77 250.388 375.919 158.926 352.706C64.1516 328.683 -8.69441 336.099 -70.2688 376.078C-144.103 424.009 -202.785 520.092 -249.63 669.783L-250.403 669.536C-203.5 519.668 -144.723 423.432 -70.7172 375.398C-8.90924 335.3 64.1154 327.811 159.104 351.916C250.627 375.114 349.676 423.02 454.54 473.711C517.849 504.324 583.317 535.977 648.822 562.793C705.959 586.201 758.598 600.456 809.665 606.393C941.474 621.675 1059 579.927 1159.03 482.276C1230.16 412.516 1293.27 313.108 1354.28 216.981C1421.24 111.474 1484.49 11.8376 1558 -53.3428C1571.93 -65.6869 1587.22 -76.8067 1604.78 -87.3692C1639.1 -107.987 1676.01 -122.832 1714.88 -131.696L1714.88 -131.665Z" fill="url(#paint19_radial_8246_12602)"/>
<path d="M1731.76 -136.233C1739.63 -138.027 1747.58 -139.58 1755.59 -140.884C1804.47 -148.836 1857.25 -147.924 1912.44 -138.067C2013.87 -119.999 2127.34 -71.3028 2249.67 6.72056C2278.08 24.8399 2306.86 43.9164 2334.65 62.3701C2365.21 82.641 2396.77 103.597 2427.75 123.182C2462.77 145.306 2497.47 165.317 2531 184.648C2604 226.752 2672.97 266.479 2743.63 325.723C2872.55 433.759 2983.78 583.508 3074.22 770.785L3073.52 771.141C2983.13 583.949 2871.96 434.317 2743.14 326.323C2672.54 267.134 2603.6 227.399 2530.63 185.319C2497.06 165.965 2462.37 145.953 2427.35 123.829C2396.36 104.244 2364.77 83.2953 2334.22 63.0244C2306.42 44.5706 2277.67 25.4872 2249.24 7.37483C2126.97 -70.6006 2013.62 -119.256 1912.29 -137.314C1857.18 -147.124 1804.48 -148.056 1755.7 -140.126C1704.4 -131.786 1655.93 -113.326 1611.66 -85.3188C1594.47 -74.4476 1579.43 -63.0912 1565.72 -50.6654C1494.15 14.2011 1429.73 115.117 1367.39 212.72C1305 310.4 1240.5 411.43 1167.1 480.532C1067.94 573.518 949.186 611.923 814.097 594.681C763.633 588.249 711.154 574.12 653.708 551.501C596.445 528.97 538.935 503.07 483.318 478.043C367.144 425.757 257.392 376.344 155.921 358.383C111.382 350.501 72.2239 349.646 36.1907 355.776C-4.14151 362.627 -39.655 378.034 -72.4089 402.828C-145.438 458.143 -201.769 559.106 -244.64 711.512L-245.406 711.295C-202.502 558.751 -146.075 457.636 -72.8812 402.185C-40.0486 377.309 -4.38731 361.835 36.0758 354.987C72.2019 348.835 111.46 349.701 156.099 357.592C257.677 375.594 367.46 424.999 483.672 477.31C539.289 502.337 596.799 528.237 654.031 550.774C711.408 573.377 763.818 587.489 814.213 593.904C949.034 611.11 1067.57 572.785 1166.54 479.942C1239.87 410.923 1304.34 309.931 1366.7 212.289C1429.04 114.655 1493.51 13.694 1565.16 -51.2558C1578.93 -63.7267 1593.99 -75.0902 1611.21 -85.9994C1648.65 -109.676 1689.11 -126.569 1731.72 -136.287L1731.76 -136.233Z" fill="url(#paint20_radial_8246_12602)"/>
<path d="M1748.64 -141.093C1801.31 -153.107 1857.59 -154.591 1917.08 -145.422C2019.75 -129.627 2132.95 -82.1094 2253.51 -4.16982C2294.09 22.0679 2335.16 50.5763 2374.9 78.1155C2392.58 90.3926 2410.89 103.084 2428.85 115.397C2454.13 132.695 2479.4 149.375 2503.82 165.466C2584.88 218.912 2661.46 269.4 2739.37 342.352C2797.41 396.678 2852.22 459.014 2902.37 527.663C2960.36 607.055 3013.79 697.206 3061.2 795.678L3060.5 796.034C3013.1 697.623 2959.7 607.465 2901.76 528.129C2851.65 459.535 2796.84 397.199 2738.88 342.921C2661.01 270.023 2584.48 219.559 2503.43 166.145C2478.97 150.029 2453.69 133.349 2428.41 116.052C2410.42 103.745 2392.15 91.0468 2374.43 78.7768C2334.71 51.1995 2293.65 22.7221 2253.07 -3.51555C2132.6 -81.3762 2019.51 -128.853 1916.94 -144.638C1805.08 -161.861 1704.54 -141.443 1618.17 -83.9321C1601.31 -72.7143 1586.5 -61.114 1572.91 -48.5544C1503.26 16.0053 1440.51 113.701 1379.84 208.184C1316.13 307.371 1250.27 409.954 1174.65 478.222C1123.7 524.065 1066.58 555.852 1004.87 572.668C947.759 588.238 885.094 591.439 818.675 582.186C768.946 575.26 716.694 561.275 658.94 539.444C609.244 520.668 559.118 499.576 510.65 479.182C383.803 425.806 263.977 375.364 152.978 364.046C61.2183 354.668 -13.2303 376.053 -74.5848 429.423C-109.189 459.531 -140.265 500.678 -166.921 551.777C-195.349 606.25 -219.802 674.006 -239.633 753.171L-240.392 752.985C-220.544 673.752 -196.043 605.919 -167.622 551.415C-140.919 500.24 -109.802 458.986 -75.112 428.825C-13.562 375.313 61.0654 353.855 153.056 363.245C264.193 374.597 384.05 425.032 510.935 478.432C559.403 498.826 609.498 519.925 659.194 538.701C716.88 560.515 769.062 574.483 818.753 581.386C885.103 590.622 947.637 587.418 1004.62 571.876C1066.21 555.088 1123.21 523.361 1174.09 477.601C1249.62 409.415 1315.46 306.871 1379.15 207.722C1439.85 113.2 1502.59 15.5051 1572.35 -49.1448C1585.95 -61.7735 1600.81 -73.3498 1617.69 -84.6056C1658.3 -111.648 1702.02 -130.494 1748.57 -141.11L1748.64 -141.093Z" fill="url(#paint21_radial_8246_12602)"/>
<path d="M1765.95 -146.576C1815.04 -157.771 1867.04 -159.877 1921.69 -152.801C2025.38 -139.361 2138.31 -93.0523 2257.3 -15.1148C2314.94 22.6305 2373.36 65.8085 2429.87 107.596C2441.35 116.07 2452.74 124.465 2464.12 132.798C2557.65 201.504 2645.99 266.436 2735.12 358.982C2791.63 417.635 2845.09 483.182 2894.09 553.759C2950.05 634.427 3001.89 724.19 3048.19 820.602L3047.49 820.957C3001.24 724.6 2949.39 634.838 2893.48 554.225C2844.51 483.672 2791.06 418.155 2734.6 359.557C2645.51 267.066 2557.18 202.165 2463.69 133.483C2452.34 125.143 2440.92 116.755 2429.47 108.274C2372.96 66.4866 2314.54 23.3087 2256.91 -14.4055C2138 -92.2642 2025.18 -138.563 1921.62 -151.97C1810.97 -166.305 1711.08 -142.933 1624.71 -82.5521C1608.21 -71.0258 1593.65 -59.1888 1580.17 -46.4263C1512.43 17.7956 1451.38 112.332 1392.35 203.764C1327.33 304.49 1260.09 408.625 1182.27 475.929C1131.37 519.837 1073.8 549.67 1011.18 564.638C1009.88 564.935 1008.55 565.239 1007.25 565.535C951.26 578.305 889.424 579.719 823.329 569.74C774.41 562.367 722.387 548.526 664.285 527.459C621.382 511.897 577.956 494.757 535.96 478.172C399.224 424.149 270.055 373.162 150.203 369.735C-44.2737 364.212 -170.069 503.267 -234.413 794.912L-235.203 794.733C-180.769 548.053 -82.3561 410.349 64.3942 376.877C91.3661 370.726 119.954 368.087 150.219 368.948C270.226 372.34 399.44 423.382 536.245 477.422C578.241 494.007 621.636 511.154 664.539 526.716C722.603 547.759 774.557 561.584 823.445 568.963C889.44 578.932 951.207 577.502 1007.07 564.76C1008.37 564.463 1009.7 564.16 1011 563.863C1073.47 548.93 1130.92 519.156 1181.75 475.332C1259.49 408.111 1326.7 304.014 1391.7 203.326C1450.75 111.856 1511.82 17.2814 1579.64 -47.0237C1593.14 -59.8243 1607.74 -71.6683 1624.26 -83.2327C1668.14 -113.925 1715.48 -135.063 1765.98 -146.583L1765.95 -146.576Z" fill="url(#paint22_radial_8246_12602)"/>
<path d="M1783.28 -152.453C1828.68 -162.807 1876.4 -165.405 1926.29 -160.18C2030.86 -149.221 2143.52 -104.06 2261.14 -26.005C2309.97 6.40878 2362.34 45.2238 2430.97 99.842C2532.78 180.882 2632.36 262.955 2730.83 375.618C2847.25 508.788 2949.6 666.891 3035.1 845.509L3034.4 845.864C2948.95 667.302 2846.6 509.261 2730.24 376.146C2631.81 263.537 2532.27 181.488 2430.49 100.472C2361.87 45.8541 2309.5 7.07016 2260.7 -25.3507C2143.19 -103.334 2030.68 -148.43 1926.21 -159.38C1816.77 -170.858 1717.48 -144.588 1631.2 -81.2272C1615.12 -69.4375 1600.8 -57.3638 1587.38 -44.3842C1521.53 19.4068 1462.19 110.909 1404.81 199.39C1338.47 301.623 1269.9 407.335 1189.82 473.589C1092.7 553.71 974.335 581.067 827.875 557.252C779.867 549.444 728.072 535.746 669.485 515.41C632.552 502.596 595.071 488.668 558.829 475.174C488.777 449.134 416.378 422.226 347.345 403.228C270.145 381.982 204.671 372.873 147.259 375.398C-45.6537 383.872 -172.395 539.063 -229.369 836.596L-230.152 836.448C-179.348 571.282 -73.1786 419.021 85.8654 382.746C105.529 378.261 125.958 375.559 147.245 374.618C204.756 372.103 270.292 381.198 347.599 402.485C416.67 421.507 489.1 448.408 559.152 474.448C595.387 487.911 632.868 501.839 669.801 514.652C728.319 534.972 780.107 548.639 828.053 556.461C974.244 580.24 1092.43 552.956 1189.35 472.977C1269.33 406.845 1337.88 301.171 1404.16 198.983C1461.57 110.464 1520.97 18.9476 1586.87 -44.9196C1600.32 -57.9373 1614.66 -70.018 1630.76 -81.8458C1677.9 -116.443 1728.91 -140.019 1783.35 -152.436L1783.28 -152.453Z" fill="url(#paint23_radial_8246_12602)"/>
<path d="M1800.55 -158.709C1842.17 -168.201 1885.67 -171.174 1930.87 -167.553C2036.16 -159.109 2148.54 -115.157 2264.91 -36.8814C2316.09 -2.45844 2370.74 39.7528 2432 92.1022C2550.69 193.565 2641.53 286.146 2726.53 392.292C2838.53 533.285 2937.94 694.181 3022.04 870.477L3021.33 870.802C2937.28 694.56 2837.88 533.727 2725.92 392.789C2640.97 286.698 2550.17 194.14 2431.49 92.7085C2370.27 40.3831 2315.62 -1.79706 2264.47 -36.227C2148.26 -114.407 2035.98 -158.318 1930.82 -166.759C1822.54 -175.435 1723.88 -146.212 1637.67 -79.8645C1622.28 -68.0371 1607.77 -55.3966 1594.57 -42.2733C1530.66 21.0418 1472.99 109.555 1417.23 195.153C1349.62 298.949 1279.69 406.245 1197.34 471.286C1145.76 511.954 1088.94 537.213 1023.62 548.49C966.206 558.421 903.67 557.189 832.423 544.764C785.47 536.585 733.873 523.038 674.694 503.391C642.976 492.878 610.751 481.568 579.558 470.642C505.589 444.712 429.111 417.919 356.038 400.201C274.24 380.363 204.986 374.106 144.293 381.098C55.0295 391.377 -20.9152 434.341 -81.46 508.829C-150.019 593.17 -198.096 717.468 -224.379 878.324L-225.155 878.207C-198.869 717.22 -150.728 592.777 -82.0588 508.346C-21.3565 433.691 54.7598 390.623 144.216 380.333C205.002 373.319 274.356 379.586 356.261 399.465C429.372 417.207 505.882 443.993 579.85 469.923C611.012 480.856 643.261 492.128 674.955 502.679C734.103 522.333 785.662 535.856 832.546 544.018C903.693 556.434 966.13 557.656 1023.45 547.746C1088.61 536.473 1145.35 511.266 1196.81 470.688C1279.05 405.738 1348.93 298.487 1416.52 194.76C1472.31 109.124 1529.97 20.5798 1593.97 -42.7875C1607.23 -55.9249 1621.74 -68.5655 1637.15 -80.4309C1687.56 -119.203 1742.2 -145.333 1800.54 -158.64L1800.55 -158.709Z" fill="url(#paint24_radial_8246_12602)"/>
<path d="M1817.85 -165.589C1855.62 -174.206 1894.87 -177.415 1935.44 -175.187C2041.52 -169.334 2153.61 -126.492 2268.71 -47.7954C2321.3 -12.0311 2375.04 31.1716 2433.06 84.3245C2538.24 180.68 2632.83 286.858 2722.24 408.929C2827.99 553.894 2924.48 717.575 3008.98 895.377L3008.27 895.702C2923.81 717.924 2827.36 554.298 2721.62 409.363C2632.26 287.348 2537.71 181.194 2432.54 84.8999C2374.56 31.8019 2320.83 -11.4007 2268.3 -47.1481C2153.36 -125.749 2041.36 -168.581 1935.46 -174.407C1828.17 -180.308 1730.21 -148.046 1644.23 -78.5226C1629.85 -66.9902 1615.59 -54.0822 1601.82 -40.2072C1540.12 22.5063 1484.29 107.826 1430.3 190.344C1361.21 295.914 1289.81 405.077 1204.95 468.931C1153.39 507.702 1096.11 531.076 1029.89 540.405C972.759 548.445 909.697 545.767 837.055 532.224C790.82 523.62 740.945 510.627 680.017 491.313C652.907 482.718 625.322 473.612 598.61 464.763C521.022 439.104 440.755 412.555 363.946 396.31C277.853 378.071 205.076 374.933 141.465 386.702C98.5832 394.656 58.1257 410.669 21.2173 434.388C-17.8225 459.473 -53.1895 493.377 -83.9005 535.125C-151.496 626.978 -197.02 756.468 -219.188 919.941L-219.964 919.824C-197.762 756.213 -152.197 626.616 -84.5375 534.618C-53.7477 492.787 -18.3258 458.837 20.7999 433.7C57.794 409.929 98.3683 393.857 141.343 385.881C205.047 374.092 277.924 377.239 364.148 395.481C441.026 411.743 521.293 438.292 598.919 463.975C625.624 472.793 653.216 481.93 680.295 490.532C741.184 509.822 791.06 522.815 837.264 531.426C909.837 544.952 972.83 547.613 1029.87 539.595C1095.96 530.294 1153.09 506.955 1204.57 468.267C1289.29 404.511 1360.67 295.386 1429.74 189.885C1483.76 107.328 1539.61 21.9709 1601.36 -40.7877C1615.13 -54.6937 1629.42 -67.609 1643.82 -79.1484C1697.43 -122.497 1755.73 -151.39 1818.01 -165.593L1817.85 -165.589Z" fill="url(#paint25_radial_8246_12602)"/>
<path d="M1835.04 -172.317C1860.87 -178.207 1887.31 -181.562 1914.16 -182.37C1970.49 -184.061 2029.29 -174.506 2088.99 -153.999C2149.19 -133.312 2210.91 -101.229 2272.48 -58.6713C2396.13 26.8171 2521.84 155.454 2646.11 323.662C2770.37 491.839 2888.06 692.606 2995.87 920.322L2995.17 920.647C2887.39 692.955 2769.73 492.281 2645.5 324.127C2521.28 156.005 2395.62 27.4235 2272.05 -58.017C2210.54 -100.558 2148.87 -132.586 2088.74 -153.256C2029.14 -173.753 1970.41 -183.261 1914.18 -181.59C1857.98 -179.896 1803.65 -166.983 1752.78 -143.181C1701.48 -119.179 1653.08 -83.8368 1608.94 -38.1437C1548.9 23.9953 1494.63 106.74 1442.13 186.767C1371.95 293.726 1299.41 404.323 1212.4 466.611C1143.2 516.159 1061.31 538.459 962.08 534.765C868.374 531.279 769.513 504.763 685.125 479.285C662.104 472.335 638.605 465.004 615.91 457.914C534.924 432.639 451.204 406.519 370.817 391.872C280.642 375.445 204.653 375.65 138.398 392.393C95.402 403.276 54.775 422.688 17.6467 450.013C-21.3203 478.703 -56.4145 516.231 -86.743 561.513C-153.236 660.912 -196.153 795.548 -214.229 961.677L-215.029 961.598C-196.919 795.331 -153.962 660.588 -87.3349 561.061C-56.9585 515.703 -21.7785 478.122 17.2433 449.387C54.4504 421.979 95.1394 402.553 138.259 391.642C204.569 374.853 280.72 374.644 371.002 391.112C451.42 405.752 535.178 431.896 616.171 457.202C638.897 464.285 662.365 471.623 685.386 478.573C769.705 504.034 868.535 530.557 962.141 534.033C1061.2 537.701 1142.92 515.474 1211.97 466.024C1298.84 403.833 1371.37 293.305 1441.49 186.391C1493.99 106.333 1548.31 23.574 1608.4 -38.6411C1652.59 -84.4104 1701.07 -119.805 1752.47 -143.859C1779.14 -156.336 1806.75 -165.83 1835.05 -172.286L1835.04 -172.317Z" fill="url(#paint26_radial_8246_12602)"/>
</g>
<rect width="1440" height="896" fill="url(#paint27_linear_8246_12602)"/>
</g>
<defs>
<radialGradient id="paint0_radial_8246_12602" cx="0" cy="0" r="1" gradientUnits="userSpaceOnUse" gradientTransform="translate(1697.07 1216.72) rotate(-102.849) scale(1807.03 5532.34)">
<stop stop-color="#9FE870"/>
<stop offset="0.625" stop-color="#009F52"/>
<stop offset="1" stop-color="#078B4B"/>
</radialGradient>
<radialGradient id="paint1_radial_8246_12602" cx="0" cy="0" r="1" gradientUnits="userSpaceOnUse" gradientTransform="translate(1697.07 1216.72) rotate(-102.849) scale(1807.03 5532.34)">
<stop stop-color="#9FE870"/>
<stop offset="0.625" stop-color="#009F52"/>
<stop offset="1" stop-color="#078B4B"/>
</radialGradient>
<radialGradient id="paint2_radial_8246_12602" cx="0" cy="0" r="1" gradientUnits="userSpaceOnUse" gradientTransform="translate(1697.07 1216.72) rotate(-102.849) scale(1807.03 5532.34)">
<stop stop-color="#9FE870"/>
<stop offset="0.625" stop-color="#009F52"/>
<stop offset="1" stop-color="#078B4B"/>
</radialGradient>
<radialGradient id="paint3_radial_8246_12602" cx="0" cy="0" r="1" gradientUnits="userSpaceOnUse" gradientTransform="translate(1697.07 1216.72) rotate(-102.849) scale(1807.03 5532.34)">
<stop stop-color="#9FE870"/>
<stop offset="0.625" stop-color="#009F52"/>
<stop offset="1" stop-color="#078B4B"/>
</radialGradient>
<radialGradient id="paint4_radial_8246_12602" cx="0" cy="0" r="1" gradientUnits="userSpaceOnUse" gradientTransform="translate(1697.07 1216.72) rotate(-102.849) scale(1807.03 5532.34)">
<stop stop-color="#9FE870"/>
<stop offset="0.625" stop-color="#009F52"/>
<stop offset="1" stop-color="#078B4B"/>
</radialGradient>
<radialGradient id="paint5_radial_8246_12602" cx="0" cy="0" r="1" gradientUnits="userSpaceOnUse" gradientTransform="translate(1697.07 1216.72) rotate(-102.849) scale(1807.03 5532.34)">
<stop stop-color="#9FE870"/>
<stop offset="0.625" stop-color="#009F52"/>
<stop offset="1" stop-color="#078B4B"/>
</radialGradient>
<radialGradient id="paint6_radial_8246_12602" cx="0" cy="0" r="1" gradientUnits="userSpaceOnUse" gradientTransform="translate(1697.07 1216.72) rotate(-102.849) scale(1807.03 5532.34)">
<stop stop-color="#9FE870"/>
<stop offset="0.625" stop-color="#009F52"/>
<stop offset="1" stop-color="#078B4B"/>
</radialGradient>
<radialGradient id="paint7_radial_8246_12602" cx="0" cy="0" r="1" gradientUnits="userSpaceOnUse" gradientTransform="translate(1697.07 1216.72) rotate(-102.849) scale(1807.03 5532.34)">
<stop stop-color="#9FE870"/>
<stop offset="0.625" stop-color="#009F52"/>
<stop offset="1" stop-color="#078B4B"/>
</radialGradient>
<radialGradient id="paint8_radial_8246_12602" cx="0" cy="0" r="1" gradientUnits="userSpaceOnUse" gradientTransform="translate(1697.07 1216.72) rotate(-102.849) scale(1807.03 5532.34)">
<stop stop-color="#9FE870"/>
<stop offset="0.625" stop-color="#009F52"/>
<stop offset="1" stop-color="#078B4B"/>
</radialGradient>
<radialGradient id="paint9_radial_8246_12602" cx="0" cy="0" r="1" gradientUnits="userSpaceOnUse" gradientTransform="translate(1697.07 1216.72) rotate(-102.849) scale(1807.03 5532.34)">
<stop stop-color="#9FE870"/>
<stop offset="0.625" stop-color="#009F52"/>
<stop offset="1" stop-color="#078B4B"/>
</radialGradient>
<radialGradient id="paint10_radial_8246_12602" cx="0" cy="0" r="1" gradientUnits="userSpaceOnUse" gradientTransform="translate(1697.07 1216.72) rotate(-102.849) scale(1807.03 5532.34)">
<stop stop-color="#9FE870"/>
<stop offset="0.625" stop-color="#009F52"/>
<stop offset="1" stop-color="#078B4B"/>
</radialGradient>
<radialGradient id="paint11_radial_8246_12602" cx="0" cy="0" r="1" gradientUnits="userSpaceOnUse" gradientTransform="translate(1697.07 1216.72) rotate(-102.849) scale(1807.03 5532.34)">
<stop stop-color="#9FE870"/>
<stop offset="0.625" stop-color="#009F52"/>
<stop offset="1" stop-color="#078B4B"/>
</radialGradient>
<radialGradient id="paint12_radial_8246_12602" cx="0" cy="0" r="1" gradientUnits="userSpaceOnUse" gradientTransform="translate(1697.07 1216.72) rotate(-102.849) scale(1807.03 5532.34)">
<stop stop-color="#9FE870"/>
<stop offset="0.625" stop-color="#009F52"/>
<stop offset="1" stop-color="#078B4B"/>
</radialGradient>
<radialGradient id="paint13_radial_8246_12602" cx="0" cy="0" r="1" gradientUnits="userSpaceOnUse" gradientTransform="translate(1697.07 1216.72) rotate(-102.849) scale(1807.03 5532.34)">
<stop stop-color="#9FE870"/>
<stop offset="0.625" stop-color="#009F52"/>
<stop offset="1" stop-color="#078B4B"/>
</radialGradient>
<radialGradient id="paint14_radial_8246_12602" cx="0" cy="0" r="1" gradientUnits="userSpaceOnUse" gradientTransform="translate(1697.07 1216.72) rotate(-102.849) scale(1807.03 5532.34)">
<stop stop-color="#9FE870"/>
<stop offset="0.625" stop-color="#009F52"/>
<stop offset="1" stop-color="#078B4B"/>
</radialGradient>
<radialGradient id="paint15_radial_8246_12602" cx="0" cy="0" r="1" gradientUnits="userSpaceOnUse" gradientTransform="translate(1697.07 1216.72) rotate(-102.849) scale(1807.03 5532.34)">
<stop stop-color="#9FE870"/>
<stop offset="0.625" stop-color="#009F52"/>
<stop offset="1" stop-color="#078B4B"/>
</radialGradient>
<radialGradient id="paint16_radial_8246_12602" cx="0" cy="0" r="1" gradientUnits="userSpaceOnUse" gradientTransform="translate(1697.07 1216.72) rotate(-102.849) scale(1807.03 5532.34)">
<stop stop-color="#9FE870"/>
<stop offset="0.625" stop-color="#009F52"/>
<stop offset="1" stop-color="#078B4B"/>
</radialGradient>
<radialGradient id="paint17_radial_8246_12602" cx="0" cy="0" r="1" gradientUnits="userSpaceOnUse" gradientTransform="translate(1697.07 1216.72) rotate(-102.849) scale(1807.03 5532.34)">
<stop stop-color="#9FE870"/>
<stop offset="0.625" stop-color="#009F52"/>
<stop offset="1" stop-color="#078B4B"/>
</radialGradient>
<radialGradient id="paint18_radial_8246_12602" cx="0" cy="0" r="1" gradientUnits="userSpaceOnUse" gradientTransform="translate(1697.07 1216.72) rotate(-102.849) scale(1807.03 5532.34)">
<stop stop-color="#9FE870"/>
<stop offset="0.625" stop-color="#009F52"/>
<stop offset="1" stop-color="#078B4B"/>
</radialGradient>
<radialGradient id="paint19_radial_8246_12602" cx="0" cy="0" r="1" gradientUnits="userSpaceOnUse" gradientTransform="translate(1697.07 1216.72) rotate(-102.849) scale(1807.03 5532.34)">
<stop stop-color="#9FE870"/>
<stop offset="0.625" stop-color="#009F52"/>
<stop offset="1" stop-color="#078B4B"/>
</radialGradient>
<radialGradient id="paint20_radial_8246_12602" cx="0" cy="0" r="1" gradientUnits="userSpaceOnUse" gradientTransform="translate(1697.07 1216.72) rotate(-102.849) scale(1807.03 5532.34)">
<stop stop-color="#9FE870"/>
<stop offset="0.625" stop-color="#009F52"/>
<stop offset="1" stop-color="#078B4B"/>
</radialGradient>
<radialGradient id="paint21_radial_8246_12602" cx="0" cy="0" r="1" gradientUnits="userSpaceOnUse" gradientTransform="translate(1697.07 1216.72) rotate(-102.849) scale(1807.03 5532.34)">
<stop stop-color="#9FE870"/>
<stop offset="0.625" stop-color="#009F52"/>
<stop offset="1" stop-color="#078B4B"/>
</radialGradient>
<radialGradient id="paint22_radial_8246_12602" cx="0" cy="0" r="1" gradientUnits="userSpaceOnUse" gradientTransform="translate(1697.07 1216.72) rotate(-102.849) scale(1807.03 5532.34)">
<stop stop-color="#9FE870"/>
<stop offset="0.625" stop-color="#009F52"/>
<stop offset="1" stop-color="#078B4B"/>
</radialGradient>
<radialGradient id="paint23_radial_8246_12602" cx="0" cy="0" r="1" gradientUnits="userSpaceOnUse" gradientTransform="translate(1697.07 1216.72) rotate(-102.849) scale(1807.03 5532.34)">
<stop stop-color="#9FE870"/>
<stop offset="0.625" stop-color="#009F52"/>
<stop offset="1" stop-color="#078B4B"/>
</radialGradient>
<radialGradient id="paint24_radial_8246_12602" cx="0" cy="0" r="1" gradientUnits="userSpaceOnUse" gradientTransform="translate(1697.07 1216.72) rotate(-102.849) scale(1807.03 5532.34)">
<stop stop-color="#9FE870"/>
<stop offset="0.625" stop-color="#009F52"/>
<stop offset="1" stop-color="#078B4B"/>
</radialGradient>
<radialGradient id="paint25_radial_8246_12602" cx="0" cy="0" r="1" gradientUnits="userSpaceOnUse" gradientTransform="translate(1697.07 1216.72) rotate(-102.849) scale(1807.03 5532.34)">
<stop stop-color="#9FE870"/>
<stop offset="0.625" stop-color="#009F52"/>
<stop offset="1" stop-color="#078B4B"/>
</radialGradient>
<radialGradient id="paint26_radial_8246_12602" cx="0" cy="0" r="1" gradientUnits="userSpaceOnUse" gradientTransform="translate(1697.07 1216.72) rotate(-102.849) scale(1807.03 5532.34)">
<stop stop-color="#9FE870"/>
<stop offset="0.625" stop-color="#009F52"/>
<stop offset="1" stop-color="#078B4B"/>
</radialGradient>
<linearGradient id="paint27_linear_8246_12602" x1="0" y1="448" x2="1440" y2="448" gradientUnits="userSpaceOnUse">
<stop offset="0.118698" stop-color="white" stop-opacity="0.8"/>
<stop offset="0.701666" stop-color="white" stop-opacity="0"/>
<stop offset="1" stop-color="white" stop-opacity="0.8"/>
</linearGradient>
<clipPath id="clip0_8246_12602">
<rect width="1440" height="896" fill="white"/>
</clipPath>
</defs>
</svg>
