<svg width="32" height="33" viewBox="0 0 32 33" fill="none" xmlns="http://www.w3.org/2000/svg">
<mask id="mask0_5510_10535" style="mask-type:alpha" maskUnits="userSpaceOnUse" x="0" y="0" width="32" height="33">
<path fill-rule="evenodd" clip-rule="evenodd" d="M8.00033 8.76383C7.29308 8.76383 6.6148 9.04479 6.11471 9.54488C5.61461 10.045 5.33366 10.7233 5.33366 11.4305V22.0972C5.33366 22.8044 5.61461 23.4827 6.11471 23.9828C6.6148 24.4829 7.29308 24.7638 8.00033 24.7638H24.0003C24.7076 24.7638 25.3858 24.4829 25.8859 23.9828C26.386 23.4827 26.667 22.8044 26.667 22.0972V11.4305C26.667 10.7233 26.386 10.045 25.8859 9.54488C25.3858 9.04479 24.7076 8.76383 24.0003 8.76383H8.00033ZM4.22909 7.65927C5.22928 6.65907 6.58584 6.09717 8.00033 6.09717H24.0003C25.4148 6.09717 26.7714 6.65907 27.7716 7.65927C28.7718 8.65946 29.3337 10.016 29.3337 11.4305V22.0972C29.3337 23.5117 28.7718 24.8682 27.7716 25.8684C26.7714 26.8686 25.4148 27.4305 24.0003 27.4305H8.00033C6.58584 27.4305 5.22928 26.8686 4.22909 25.8684C3.2289 24.8682 2.66699 23.5117 2.66699 22.0972V11.4305C2.66699 10.016 3.2289 8.65946 4.22909 7.65927Z" fill="black"/>
<path fill-rule="evenodd" clip-rule="evenodd" d="M2.66699 14.097C2.66699 13.3606 3.26395 12.7637 4.00033 12.7637H28.0003C28.7367 12.7637 29.3337 13.3606 29.3337 14.097C29.3337 14.8334 28.7367 15.4303 28.0003 15.4303H4.00033C3.26395 15.4303 2.66699 14.8334 2.66699 14.097Z" fill="black"/>
<path fill-rule="evenodd" clip-rule="evenodd" d="M8 20.7635C8 20.0271 8.59695 19.4302 9.33333 19.4302H9.34667C10.083 19.4302 10.68 20.0271 10.68 20.7635C10.68 21.4999 10.083 22.0968 9.34667 22.0968H9.33333C8.59695 22.0968 8 21.4999 8 20.7635Z" fill="black"/>
<path fill-rule="evenodd" clip-rule="evenodd" d="M13.333 20.7635C13.333 20.0271 13.93 19.4302 14.6663 19.4302H17.333C18.0694 19.4302 18.6663 20.0271 18.6663 20.7635C18.6663 21.4999 18.0694 22.0968 17.333 22.0968H14.6663C13.93 22.0968 13.333 21.4999 13.333 20.7635Z" fill="black"/>
</mask>
<g mask="url(#mask0_5510_10535)">
<rect y="0.763672" width="32" height="32" fill="#00994F"/>
</g>
</svg>
