<svg width="32" height="32" viewBox="0 0 32 32" fill="none" xmlns="http://www.w3.org/2000/svg">
<path fill-rule="evenodd" clip-rule="evenodd" d="M16 0C7.16344 0 0 7.16344 0 16C0 24.8366 7.16344 32 16 32C24.8366 32 32 24.8366 32 16C32 7.16344 24.8366 0 16 0ZM21.5473 9.90417C22.2894 10.3594 23.1468 10.6 24.0214 10.5987L24.0214 11.2982C23.6624 11.2228 23.3157 11.1066 22.988 10.9531C23.3134 11.1057 23.6597 11.2225 24.0214 11.2982C24.3431 11.3652 24.6711 11.3989 25 11.3989V14.6851C23.2623 14.6851 21.6534 14.1422 20.3401 13.2196L20.3402 19.9257C20.3402 23.2806 17.5728 26 14.1593 26C12.4277 26 10.8625 25.3004 9.74012 24.1726C8.08746 23.0823 7 21.2288 7 19.1257C7 15.7712 9.76725 13.0516 13.181 13.0517C13.4647 13.0516 13.748 13.0705 14.029 13.1082L14.0291 13.8528C14.356 13.846 14.6832 13.8645 15.0073 13.9082V17.2678C14.7299 17.1813 14.4406 17.1376 14.1496 17.1376C12.5881 17.1376 11.3223 18.3817 11.3223 19.9161C11.3214 20.5239 11.5241 21.115 11.8991 21.5982C12.2816 21.7878 12.7133 21.8946 13.1709 21.8946C14.7292 21.8946 15.9927 20.6556 15.9981 19.1257V6H19.3615V6.42268C19.3733 6.54904 19.3905 6.67492 19.4127 6.79998H20.3401V7.22266C20.4355 8.25224 20.8761 9.18353 21.5473 9.90417Z" fill="#9FE870"/>
</svg>
