<svg width="25" height="25" viewBox="0 0 25 25" fill="none" xmlns="http://www.w3.org/2000/svg">
<mask id="mask0_5510_6356" style="mask-type:alpha" maskUnits="userSpaceOnUse" x="0" y="0" width="25" height="25">
<path fill-rule="evenodd" clip-rule="evenodd" d="M16.0858 16.0858C16.4609 15.7107 16.9696 15.5 17.5 15.5C18.0304 15.5 18.5391 15.7107 18.9142 16.0858C19.2893 16.4609 19.5 16.9696 19.5 17.5C19.5 18.0304 19.2893 18.5391 18.9142 18.9142C18.5391 19.2893 18.0304 19.5 17.5 19.5C16.9696 19.5 16.4609 19.2893 16.0858 18.9142C15.7107 18.5391 15.5 18.0304 15.5 17.5C15.5 16.9696 15.7107 16.4609 16.0858 16.0858Z" fill="black"/>
<path fill-rule="evenodd" clip-rule="evenodd" d="M6.08579 6.08579C6.46086 5.71071 6.96957 5.5 7.5 5.5C8.03043 5.5 8.53914 5.71071 8.91421 6.08579C9.28929 6.46086 9.5 6.96957 9.5 7.5C9.5 8.03043 9.28929 8.53914 8.91421 8.91421C8.53914 9.28929 8.03043 9.5 7.5 9.5C6.96957 9.5 6.46086 9.28929 6.08579 8.91421C5.71071 8.53914 5.5 8.03043 5.5 7.5C5.5 6.96957 5.71071 6.46086 6.08579 6.08579Z" fill="black"/>
<path fill-rule="evenodd" clip-rule="evenodd" d="M19.2071 5.79289C19.5976 6.18342 19.5976 6.81658 19.2071 7.20711L7.20711 19.2071C6.81658 19.5976 6.18342 19.5976 5.79289 19.2071C5.40237 18.8166 5.40237 18.1834 5.79289 17.7929L17.7929 5.79289C18.1834 5.40237 18.8166 5.40237 19.2071 5.79289Z" fill="black"/>
</mask>
<g mask="url(#mask0_5510_6356)">
<rect x="0.5" y="0.5" width="24" height="24" fill="#FB9301"/>
</g>
</svg>
