<svg width="32" height="32" viewBox="0 0 32 32" fill="none" xmlns="http://www.w3.org/2000/svg">
<path fill-rule="evenodd" clip-rule="evenodd" d="M16 0C7.16344 0 0 7.16344 0 16C0 24.8366 7.16344 32 16 32C24.8366 32 32 24.8366 32 16C32 7.16344 24.8366 0 16 0ZM19.3657 11.9999C19.8263 11.9997 20.2867 11.9997 20.7471 11.9999L20.7471 14.6848C20.7472 16.4749 20.7472 18.2649 20.7471 20.055C20.6222 20.0545 20.4973 20.0547 20.3724 20.0549H20.3715C20.1815 20.0552 19.9914 20.0555 19.8015 20.0532C19.5617 20.0468 19.3558 19.8242 19.3657 19.5829V11.9999ZM5.1845 11.9999H11.6309L11.631 12.0389C11.6318 12.2683 11.6327 12.5006 11.5731 12.7236C11.522 12.9117 11.4374 13.0922 11.3197 13.2473C11.1741 13.4104 11.0385 13.5821 10.903 13.7537L10.903 13.7537L10.903 13.7537L10.903 13.7537L10.903 13.7537L10.903 13.7538L10.9026 13.7542C10.8684 13.7975 10.8342 13.8409 10.7998 13.8841L6.93998 18.7586L11.6309 18.7588C11.6304 18.8554 11.6307 18.9521 11.631 19.0488C11.6315 19.2125 11.632 19.3762 11.6286 19.5397C11.6151 19.8179 11.3645 20.0557 11.0881 20.0541C9.73597 20.0554 8.38375 20.0552 7.03157 20.055H7.02882C6.35269 20.0549 5.67658 20.0548 5.00049 20.0548C5.00143 19.9955 5.00098 19.936 5.00052 19.8765C4.99913 19.6948 4.99773 19.5127 5.03616 19.3344C5.07861 19.134 5.18202 18.9512 5.3132 18.7963C6.38052 17.4676 7.4476 16.1388 8.5147 14.8099L9.65571 13.389C8.91051 13.3887 8.16531 13.3887 7.42011 13.3888C6.6749 13.3888 5.9297 13.3889 5.1845 13.3886L5.18445 12.9258C5.1844 12.6172 5.18435 12.3085 5.1845 11.9999ZM24.686 13.7486C25.4715 13.7092 26.2667 13.9785 26.8673 14.4902C27.4268 14.9605 27.8181 15.6302 27.9475 16.3532C28.0836 17.0907 27.9518 17.8755 27.5758 18.5236C27.1974 19.1863 26.5743 19.7028 25.8551 19.9475C25.0755 20.2174 24.1913 20.1644 23.4503 19.7999C22.7425 19.4567 22.171 18.8386 21.884 18.102C21.5688 17.3067 21.5921 16.3829 21.9495 15.6059C22.2424 14.9595 22.7569 14.4194 23.3848 14.0963C23.787 13.8875 24.2342 13.7688 24.686 13.7486ZM24.577 15.0742C23.9233 15.1579 23.3365 15.6213 23.0983 16.2399C22.9231 16.6802 22.9242 17.1882 23.1006 17.6281C23.2451 17.9937 23.5083 18.3101 23.8393 18.5188C24.1861 18.7404 24.6072 18.8384 25.0152 18.797C25.3464 18.7649 25.6682 18.6405 25.9357 18.4413C26.2654 18.1982 26.5117 17.8427 26.6235 17.4468C26.745 17.0218 26.7111 16.5533 26.5266 16.1517C26.3485 15.7587 26.031 15.4319 25.6447 15.2447C25.316 15.0826 24.9391 15.0246 24.577 15.0742ZM13.8214 14.0616C14.3689 13.8123 14.9885 13.7286 15.5823 13.8187C16.0819 13.893 16.5622 14.0929 16.9699 14.3929C16.9697 14.2483 16.9697 14.1036 16.9699 13.959L17.4001 13.9589C17.6869 13.9589 17.9738 13.9588 18.2605 13.959C18.2604 15.3012 18.2604 16.6432 18.2605 17.9852V18.0232L18.2605 20.0551C18.1627 20.0545 18.0649 20.0549 17.9671 20.0553H17.9669C17.8039 20.0559 17.6409 20.0565 17.478 20.0526C17.1998 20.0372 16.9679 19.7825 16.9681 19.5032C16.3102 19.9912 15.459 20.2018 14.6511 20.0779C13.9659 19.979 13.3188 19.6408 12.8408 19.1366C12.3786 18.6549 12.0754 18.0211 11.9918 17.3562C11.9103 16.7283 12.0196 16.0763 12.3073 15.5127C12.6292 14.8748 13.1727 14.3536 13.8214 14.0616ZM15.0009 15.0909C14.3457 15.1234 13.7293 15.5398 13.4466 16.1354C13.2407 16.5572 13.205 17.0589 13.3461 17.5069C13.4597 17.8724 13.6895 18.1992 13.9925 18.43C14.3032 18.6688 14.6907 18.8041 15.0815 18.8089C15.4791 18.8169 15.8783 18.6915 16.1996 18.455C16.5301 18.2156 16.7776 17.8624 16.8907 17.4685C17.0029 17.0821 16.9864 16.6589 16.8426 16.2834C16.7123 15.9405 16.4784 15.6387 16.1802 15.4279C15.8403 15.1843 15.4168 15.0647 15.0009 15.0909Z" fill="#9FE870"/>
</svg>
